<svg id="Layer_1" data-name="Layer 1" xmlns="http://www.w3.org/2000/svg" viewBox="0 0 238.55 59.12">
    <defs>
        <style>.cls-1,.cls-2{fill:#fff;}.cls-2{fill-rule:evenodd;}</style>
    </defs>
    <path class="cls-1"
          d="M80.23,51.4a2.53,2.53,0,0,1-1.34-2.28,2.54,2.54,0,0,1,.36-1.34,2.44,2.44,0,0,1,1-.93,2.92,2.92,0,0,1,1.4-.33,2.79,2.79,0,0,1,1.18.23,2.26,2.26,0,0,1,.89.66L83,48.1a1.65,1.65,0,0,0-1.27-.59,1.66,1.66,0,0,0-.84.21,1.42,1.42,0,0,0-.57.57,1.63,1.63,0,0,0-.21.83,1.66,1.66,0,0,0,.21.84,1.49,1.49,0,0,0,.57.57,1.66,1.66,0,0,0,.84.21,1.62,1.62,0,0,0,1.27-.6l.74.69a2.28,2.28,0,0,1-.89.67,3,3,0,0,1-1.19.23A2.91,2.91,0,0,1,80.23,51.4Z"
          transform="translate(-9.45 -10.88)"/>
    <path class="cls-1"
          d="M86.28,51.39a2.46,2.46,0,0,1-1-.93,2.63,2.63,0,0,1-.35-1.34,2.59,2.59,0,0,1,.35-1.33,2.56,2.56,0,0,1,1-.94,3.2,3.2,0,0,1,2.83,0,2.53,2.53,0,0,1,1,.94,2.5,2.5,0,0,1,.36,1.33,2.54,2.54,0,0,1-.36,1.34,2.44,2.44,0,0,1-1,.93,3.11,3.11,0,0,1-2.83,0Zm2.22-.86a1.49,1.49,0,0,0,.57-.57,1.77,1.77,0,0,0,.2-.84,1.73,1.73,0,0,0-.2-.83,1.42,1.42,0,0,0-.57-.57,1.65,1.65,0,0,0-1.61,0,1.42,1.42,0,0,0-.57.57,1.73,1.73,0,0,0-.2.83,1.77,1.77,0,0,0,.2.84,1.49,1.49,0,0,0,.57.57,1.65,1.65,0,0,0,1.61,0Z"
          transform="translate(-9.45 -10.88)"/>
    <path class="cls-1" d="M96.79,51.65v-3L95.3,51.11h-.52L93.3,48.68v3H92.21v-5h1l1.89,3.14,1.86-3.14h1v5Z"
          transform="translate(-9.45 -10.88)"/>
    <path class="cls-1" d="M100,46.6h1.16v5H100Z" transform="translate(-9.45 -10.88)"/>
    <path class="cls-1"
          d="M103.69,51.57a2.73,2.73,0,0,1-.89-.42l.39-.88a2.77,2.77,0,0,0,.77.38,2.82,2.82,0,0,0,.9.14,1.41,1.41,0,0,0,.73-.14.45.45,0,0,0,.24-.4.36.36,0,0,0-.14-.29,1.25,1.25,0,0,0-.36-.2c-.15,0-.35-.1-.6-.15a8,8,0,0,1-.94-.28,1.47,1.47,0,0,1-.63-.44,1.15,1.15,0,0,1-.26-.8,1.47,1.47,0,0,1,.23-.8,1.61,1.61,0,0,1,.72-.57,3.11,3.11,0,0,1,1.17-.2,3.8,3.8,0,0,1,1,.11,3,3,0,0,1,.8.33l-.36.89a2.74,2.74,0,0,0-1.4-.4,1.37,1.37,0,0,0-.72.16.48.48,0,0,0-.23.42.4.4,0,0,0,.27.38,3.69,3.69,0,0,0,.82.25,8.18,8.18,0,0,1,.95.28,1.58,1.58,0,0,1,.63.43,1.18,1.18,0,0,1,.26.8,1.39,1.39,0,0,1-.24.79,1.7,1.7,0,0,1-.73.56,2.91,2.91,0,0,1-1.17.21A4.06,4.06,0,0,1,103.69,51.57Z"
          transform="translate(-9.45 -10.88)"/>
    <path class="cls-1" d="M108.66,46.6h1.17v5h-1.17Z" transform="translate(-9.45 -10.88)"/>
    <path class="cls-1"
          d="M112.92,51.39a2.46,2.46,0,0,1-1-.93,2.63,2.63,0,0,1-.35-1.34,2.59,2.59,0,0,1,.35-1.33,2.56,2.56,0,0,1,1-.94,3.2,3.2,0,0,1,2.83,0,2.56,2.56,0,0,1,1,.94,2.5,2.5,0,0,1,.36,1.33,2.54,2.54,0,0,1-.36,1.34,2.46,2.46,0,0,1-1,.93,3.11,3.11,0,0,1-2.83,0Zm2.22-.86a1.49,1.49,0,0,0,.57-.57,1.66,1.66,0,0,0,.2-.84,1.62,1.62,0,0,0-.2-.83,1.42,1.42,0,0,0-.57-.57,1.65,1.65,0,0,0-1.61,0,1.42,1.42,0,0,0-.57.57,1.73,1.73,0,0,0-.2.83,1.77,1.77,0,0,0,.2.84,1.49,1.49,0,0,0,.57.57,1.65,1.65,0,0,0,1.61,0Zm-.49-5.38h1.21l-1.3,1h-.88Z"
          transform="translate(-9.45 -10.88)"/>
    <path class="cls-1" d="M123.47,46.6v5h-1L120,48.58v3.07h-1.15v-5h1l2.51,3.06V46.6Z"
          transform="translate(-9.45 -10.88)"/>
    <path class="cls-1" d="M133.07,46.6v5h-.95l-2.52-3.07v3.07h-1.15v-5h1l2.51,3.06V46.6Z"
          transform="translate(-9.45 -10.88)"/>
    <path class="cls-1" d="M138.46,50.56h-2.34l-.44,1.09h-1.2l2.25-5h1.15l2.25,5h-1.22Zm-.36-.88-.8-1.93-.8,1.93Z"
          transform="translate(-9.45 -10.88)"/>
    <path class="cls-1"
          d="M142.48,51.4a2.53,2.53,0,0,1-1.34-2.28,2.54,2.54,0,0,1,.36-1.34,2.44,2.44,0,0,1,1-.93,2.92,2.92,0,0,1,1.4-.33,2.87,2.87,0,0,1,1.19.23,2.33,2.33,0,0,1,.89.66l-.75.69a1.63,1.63,0,0,0-1.27-.59,1.69,1.69,0,0,0-.84.21,1.42,1.42,0,0,0-.57.57,1.63,1.63,0,0,0-.21.83,1.66,1.66,0,0,0,.21.84,1.49,1.49,0,0,0,.57.57,1.69,1.69,0,0,0,.84.21,1.61,1.61,0,0,0,1.27-.6l.75.69a2.32,2.32,0,0,1-.9.67,3,3,0,0,1-1.19.23A2.91,2.91,0,0,1,142.48,51.4Z"
          transform="translate(-9.45 -10.88)"/>
    <path class="cls-1" d="M147.61,46.6h1.17v5h-1.17Z" transform="translate(-9.45 -10.88)"/>
    <path class="cls-1"
          d="M151.87,51.39a2.38,2.38,0,0,1-1-.93,2.54,2.54,0,0,1-.36-1.34,2.5,2.5,0,0,1,.36-1.33,2.47,2.47,0,0,1,1-.94,3,3,0,0,1,1.42-.33,3,3,0,0,1,1.41.33,2.56,2.56,0,0,1,1,.94,2.5,2.5,0,0,1,.36,1.33,2.54,2.54,0,0,1-.36,1.34,2.46,2.46,0,0,1-1,.93,2.88,2.88,0,0,1-1.41.34A2.92,2.92,0,0,1,151.87,51.39Zm2.23-.86a1.46,1.46,0,0,0,.56-.57,1.66,1.66,0,0,0,.21-.84,1.63,1.63,0,0,0-.21-.83,1.4,1.4,0,0,0-.56-.57,1.67,1.67,0,0,0-1.62,0,1.34,1.34,0,0,0-.56.57,1.63,1.63,0,0,0-.21.83,1.66,1.66,0,0,0,.21.84,1.4,1.4,0,0,0,.56.57,1.67,1.67,0,0,0,1.62,0Z"
          transform="translate(-9.45 -10.88)"/>
    <path class="cls-1" d="M162.42,46.6v5h-.95L159,48.58v3.07H157.8v-5h1l2.51,3.06V46.6Z"
          transform="translate(-9.45 -10.88)"/>
    <path class="cls-1" d="M167.81,50.56h-2.34L165,51.65h-1.2l2.25-5h1.15l2.25,5h-1.22Zm-.36-.88-.8-1.93-.8,1.93Z"
          transform="translate(-9.45 -10.88)"/>
    <path class="cls-1" d="M170.88,46.6h1.17v4.09h2.53v1h-3.7Z" transform="translate(-9.45 -10.88)"/>
    <path class="cls-1"
          d="M182.36,46.83a1.69,1.69,0,0,1,.76.63,1.72,1.72,0,0,1,.27,1,1.75,1.75,0,0,1-.27,1,1.63,1.63,0,0,1-.76.63,2.79,2.79,0,0,1-1.16.22h-1v1.4H179v-5h2.18A2.79,2.79,0,0,1,182.36,46.83Zm-.43,2.25a.89.89,0,0,0,0-1.3,1.23,1.23,0,0,0-.8-.23h-.95V49.3h.95A1.23,1.23,0,0,0,181.93,49.08Z"
          transform="translate(-9.45 -10.88)"/>
    <path class="cls-1" d="M188.16,50.56h-2.34l-.45,1.09h-1.2l2.25-5h1.15l2.26,5H188.6Zm-.37-.88-.8-1.93-.8,1.93Z"
          transform="translate(-9.45 -10.88)"/>
    <path class="cls-1"
          d="M194.44,51.65l-1-1.41h-1.08v1.41h-1.16v-5h2.18a2.76,2.76,0,0,1,1.16.23,1.64,1.64,0,0,1,.76.63,1.72,1.72,0,0,1,.27,1,1.63,1.63,0,0,1-1,1.59l1.13,1.63Zm-.3-3.87a1.21,1.21,0,0,0-.8-.23h-1v1.76h1a1.21,1.21,0,0,0,.8-.23.89.89,0,0,0,0-1.3Z"
          transform="translate(-9.45 -10.88)"/>
    <path class="cls-1" d="M200.71,50.56h-2.34l-.44,1.09h-1.2l2.25-5h1.15l2.26,5h-1.23Zm-.36-.88-.8-1.93-.8,1.93Z"
          transform="translate(-9.45 -10.88)"/>
    <path class="cls-1" d="M83.11,58.86v.94h-3.9v-5H83v.94H80.37v1.1h2.34v.9H80.37v1.17Z"
          transform="translate(-9.45 -10.88)"/>
    <path class="cls-1" d="M84.91,54.75h1.17v4.1h2.53v.95h-3.7Z" transform="translate(-9.45 -10.88)"/>
    <path class="cls-1"
          d="M94.07,59.55a2.44,2.44,0,0,1-1-.93,2.54,2.54,0,0,1-.36-1.34A2.53,2.53,0,0,1,94.07,55a2.92,2.92,0,0,1,1.4-.33,2.79,2.79,0,0,1,1.18.23,2.26,2.26,0,0,1,.89.66l-.75.69a1.61,1.61,0,0,0-1.26-.59,1.66,1.66,0,0,0-.84.21,1.42,1.42,0,0,0-.57.57,1.66,1.66,0,0,0-.21.84,1.63,1.63,0,0,0,.21.83,1.36,1.36,0,0,0,.57.57,1.66,1.66,0,0,0,.84.21,1.59,1.59,0,0,0,1.26-.6l.75.69a2.19,2.19,0,0,1-.89.67,2.87,2.87,0,0,1-1.19.23A2.91,2.91,0,0,1,94.07,59.55Z"
          transform="translate(-9.45 -10.88)"/>
    <path class="cls-1"
          d="M100.12,59.55a2.56,2.56,0,0,1-1-.94,2.5,2.5,0,0,1-.35-1.33,2.53,2.53,0,0,1,.35-1.34,2.46,2.46,0,0,1,1-.93A3.11,3.11,0,0,1,103,55a2.5,2.5,0,0,1,1,.93,2.54,2.54,0,0,1,.36,1.34,2.5,2.5,0,0,1-.36,1.33,2.6,2.6,0,0,1-1,.94,3.2,3.2,0,0,1-2.83,0Zm2.22-.87a1.42,1.42,0,0,0,.57-.57,1.73,1.73,0,0,0,.2-.83,1.77,1.77,0,0,0-.2-.84,1.49,1.49,0,0,0-.57-.57,1.65,1.65,0,0,0-1.61,0,1.49,1.49,0,0,0-.57.57,1.77,1.77,0,0,0-.2.84,1.73,1.73,0,0,0,.2.83,1.42,1.42,0,0,0,.57.57,1.65,1.65,0,0,0,1.61,0Z"
          transform="translate(-9.45 -10.88)"/>
    <path class="cls-1" d="M110.67,54.75v5h-1l-2.51-3.06V59.8H106v-5h1l2.51,3.07V54.75Z"
          transform="translate(-9.45 -10.88)"/>
    <path class="cls-1"
          d="M113.76,59.55a2.47,2.47,0,0,1-1-.94,2.5,2.5,0,0,1-.36-1.33,2.54,2.54,0,0,1,.36-1.34,2.38,2.38,0,0,1,1-.93,2.92,2.92,0,0,1,1.42-.34,2.88,2.88,0,0,1,1.41.34,2.46,2.46,0,0,1,1,.93,2.54,2.54,0,0,1,.36,1.34,2.5,2.5,0,0,1-.36,1.33,2.56,2.56,0,0,1-1,.94,3,3,0,0,1-1.41.33A3,3,0,0,1,113.76,59.55Zm2.23-.87a1.4,1.4,0,0,0,.56-.57,1.63,1.63,0,0,0,.21-.83,1.66,1.66,0,0,0-.21-.84,1.46,1.46,0,0,0-.56-.57,1.67,1.67,0,0,0-1.62,0,1.4,1.4,0,0,0-.56.57,1.66,1.66,0,0,0-.21.84,1.63,1.63,0,0,0,.21.83,1.34,1.34,0,0,0,.56.57,1.67,1.67,0,0,0,1.62,0Z"
          transform="translate(-9.45 -10.88)"/>
    <path class="cls-1"
          d="M120.71,59.55a2.44,2.44,0,0,1-1-.93,2.54,2.54,0,0,1-.36-1.34A2.53,2.53,0,0,1,120.71,55a2.92,2.92,0,0,1,1.4-.33,2.87,2.87,0,0,1,1.19.23,2.3,2.3,0,0,1,.88.66l-.74.69a1.65,1.65,0,0,0-1.27-.59,1.69,1.69,0,0,0-.84.21,1.49,1.49,0,0,0-.57.57,1.66,1.66,0,0,0-.21.84,1.63,1.63,0,0,0,.21.83,1.42,1.42,0,0,0,.57.57,1.69,1.69,0,0,0,.84.21,1.62,1.62,0,0,0,1.27-.6l.74.69a2.19,2.19,0,0,1-.89.67,2.84,2.84,0,0,1-1.19.23A2.91,2.91,0,0,1,120.71,59.55Z"
          transform="translate(-9.45 -10.88)"/>
    <path class="cls-1" d="M125.84,54.75H127v5h-1.17Z" transform="translate(-9.45 -10.88)"/>
    <path class="cls-1" d="M133.67,59.8v-3l-1.49,2.49h-.52l-1.48-2.42v3h-1.09v-5h1l1.89,3.14,1.86-3.14h1v5Z"
          transform="translate(-9.45 -10.88)"/>
    <path class="cls-1" d="M136.83,54.75H138v5h-1.17Z" transform="translate(-9.45 -10.88)"/>
    <path class="cls-1" d="M144,58.86v.94h-3.91v-5h3.81v.94h-2.65v1.1h2.34v.9h-2.34v1.17Z"
          transform="translate(-9.45 -10.88)"/>
    <path class="cls-1" d="M150.39,54.75v5h-.95l-2.52-3.06V59.8h-1.15v-5h1l2.51,3.07V54.75Z"
          transform="translate(-9.45 -10.88)"/>
    <path class="cls-1" d="M153.51,55.71h-1.62v-1h4.4v1h-1.62V59.8h-1.16Z" transform="translate(-9.45 -10.88)"/>
    <path class="cls-1"
          d="M158.74,59.55a2.56,2.56,0,0,1-1-.94,2.5,2.5,0,0,1-.35-1.33,2.53,2.53,0,0,1,.35-1.34,2.46,2.46,0,0,1,1-.93,3.11,3.11,0,0,1,2.83,0,2.5,2.5,0,0,1,1,.93,2.54,2.54,0,0,1,.36,1.34,2.5,2.5,0,0,1-.36,1.33,2.6,2.6,0,0,1-1,.94,3.2,3.2,0,0,1-2.83,0Zm2.22-.87a1.42,1.42,0,0,0,.57-.57,1.73,1.73,0,0,0,.2-.83,1.77,1.77,0,0,0-.2-.84,1.49,1.49,0,0,0-.57-.57,1.65,1.65,0,0,0-1.61,0,1.49,1.49,0,0,0-.57.57,1.77,1.77,0,0,0-.2.84,1.73,1.73,0,0,0,.2.83,1.42,1.42,0,0,0,.57.57,1.65,1.65,0,0,0,1.61,0Z"
          transform="translate(-9.45 -10.88)"/>
    <path class="cls-1" d="M170,58V59.8h-1.17V58l-2-3.25h1.24L169.46,57l1.35-2.24H172Z"
          transform="translate(-9.45 -10.88)"/>
    <path class="cls-1"
          d="M176.79,59.29a2.28,2.28,0,0,1-.61-1.71V54.75h1.17v2.79c0,.9.38,1.35,1.13,1.35a1,1,0,0,0,.83-.33,1.53,1.53,0,0,0,.29-1V54.75h1.15v2.83a2.39,2.39,0,0,1-4,1.71Z"
          transform="translate(-9.45 -10.88)"/>
    <path class="cls-1"
          d="M183.28,59.72a2.79,2.79,0,0,1-.9-.42l.4-.88a2.41,2.41,0,0,0,.77.38,2.73,2.73,0,0,0,.89.15,1.44,1.44,0,0,0,.74-.15.46.46,0,0,0,.23-.39.36.36,0,0,0-.14-.3,1,1,0,0,0-.36-.19c-.14-.05-.34-.1-.59-.16a6.59,6.59,0,0,1-.95-.28,1.58,1.58,0,0,1-.63-.43,1.25,1.25,0,0,1-.26-.81,1.42,1.42,0,0,1,.24-.8,1.59,1.59,0,0,1,.72-.56,2.85,2.85,0,0,1,1.17-.21,4.24,4.24,0,0,1,.94.11,3,3,0,0,1,.81.33L186,56a2.9,2.9,0,0,0-1.4-.4,1.39,1.39,0,0,0-.73.16.51.51,0,0,0-.23.42.42.42,0,0,0,.27.39,4.61,4.61,0,0,0,.83.24c.38.1.69.19.94.28a1.58,1.58,0,0,1,.63.43,1.18,1.18,0,0,1,.26.8,1.39,1.39,0,0,1-.24.79,1.53,1.53,0,0,1-.72.56,3,3,0,0,1-1.18.21A4,4,0,0,1,183.28,59.72Z"
          transform="translate(-9.45 -10.88)"/>
    <path class="cls-1"
          d="M189.27,59.55a2.56,2.56,0,0,1-1-.94,2.59,2.59,0,0,1-.35-1.33,2.63,2.63,0,0,1,.35-1.34,2.46,2.46,0,0,1,1-.93,3.11,3.11,0,0,1,2.83,0,2.46,2.46,0,0,1,1,.93,2.54,2.54,0,0,1,.36,1.34,2.5,2.5,0,0,1-.36,1.33,2.56,2.56,0,0,1-1,.94,3.2,3.2,0,0,1-2.83,0Zm2.22-.87a1.42,1.42,0,0,0,.57-.57,1.62,1.62,0,0,0,.2-.83,1.66,1.66,0,0,0-.2-.84,1.49,1.49,0,0,0-.57-.57,1.65,1.65,0,0,0-1.61,0,1.49,1.49,0,0,0-.57.57,1.77,1.77,0,0,0-.2.84,1.73,1.73,0,0,0,.2.83,1.42,1.42,0,0,0,.57.57,1.65,1.65,0,0,0,1.61,0Z"
          transform="translate(-9.45 -10.88)"/>
    <path class="cls-1"
          d="M79.21,62.91H81.5a3.19,3.19,0,0,1,1.45.31,2.33,2.33,0,0,1,1,.88,2.68,2.68,0,0,1,0,2.65,2.35,2.35,0,0,1-1,.89A3.19,3.19,0,0,1,81.5,68H79.21ZM81.44,67a1.7,1.7,0,0,0,1.21-.42,1.67,1.67,0,0,0,0-2.28,1.7,1.7,0,0,0-1.21-.43H80.38V67Z"
          transform="translate(-9.45 -10.88)"/>
    <path class="cls-1" d="M89.94,67V68H86v-5h3.81v.93H87.19v1.1h2.34v.91H87.19V67Z"
          transform="translate(-9.45 -10.88)"/>
    <path class="cls-1" d="M94.65,62.91h1.16V67h2.53v1H94.65Z" transform="translate(-9.45 -10.88)"/>
    <path class="cls-1" d="M103.23,66.87h-2.34L100.45,68h-1.2l2.25-5h1.15l2.26,5h-1.23Zm-.36-.89-.8-1.93-.8,1.93Z"
          transform="translate(-9.45 -10.88)"/>
    <path class="cls-1"
          d="M113.59,65.78a1.24,1.24,0,0,1,.25.79,1.14,1.14,0,0,1-.52,1,2.59,2.59,0,0,1-1.5.36h-2.61v-5h2.47a2.37,2.37,0,0,1,1.41.35,1.11,1.11,0,0,1,.5,1,1.25,1.25,0,0,1-.67,1.11A1.29,1.29,0,0,1,113.59,65.78Zm-3.22-2V65h1.16a1.19,1.19,0,0,0,.66-.15.5.5,0,0,0,.22-.44.5.5,0,0,0-.22-.45,1.2,1.2,0,0,0-.66-.14Zm2.06,3.13a.52.52,0,0,0,.24-.47q0-.63-.93-.63h-1.37v1.25h1.37A1.31,1.31,0,0,0,112.43,66.92Z"
          transform="translate(-9.45 -10.88)"/>
    <path class="cls-1" d="M115.6,62.91h1.16v5H115.6Z" transform="translate(-9.45 -10.88)"/>
    <path class="cls-1"
          d="M119.86,67.7a2.56,2.56,0,0,1-1-.94,2.5,2.5,0,0,1-.36-1.33,2.51,2.51,0,0,1,1.35-2.27,3.11,3.11,0,0,1,2.83,0,2.58,2.58,0,0,1,1,.93,2.54,2.54,0,0,1,.36,1.34,2.5,2.5,0,0,1-.36,1.33,2.6,2.6,0,0,1-1,.94,3.11,3.11,0,0,1-2.83,0Zm2.22-.86a1.51,1.51,0,0,0,.57-.58,1.73,1.73,0,0,0,.2-.83,1.8,1.8,0,0,0-.2-.84,1.56,1.56,0,0,0-.57-.57,1.65,1.65,0,0,0-1.61,0,1.56,1.56,0,0,0-.57.57,1.68,1.68,0,0,0-.2.84,1.62,1.62,0,0,0,.2.83,1.51,1.51,0,0,0,.57.58,1.72,1.72,0,0,0,1.61,0Z"
          transform="translate(-9.45 -10.88)"/>
    <path class="cls-1"
          d="M125.78,62.91h2.29a3.23,3.23,0,0,1,1.46.31,2.39,2.39,0,0,1,1,.88,2.68,2.68,0,0,1,0,2.65,2.41,2.41,0,0,1-1,.89,3.23,3.23,0,0,1-1.46.31h-2.29ZM128,67a1.69,1.69,0,0,0,1.2-.42,1.67,1.67,0,0,0,0-2.28,1.69,1.69,0,0,0-1.2-.43H127V67Z"
          transform="translate(-9.45 -10.88)"/>
    <path class="cls-1" d="M132.61,62.91h1.16v5h-1.16Z" transform="translate(-9.45 -10.88)"/>
    <path class="cls-1" d="M140.66,62.91l-2.18,5h-1.15l-2.18-5h1.26l1.53,3.6,1.56-3.6Z"
          transform="translate(-9.45 -10.88)"/>
    <path class="cls-1" d="M145.85,67V68H142v-5h3.81v.93h-2.65v1.1h2.34v.91h-2.34V67Z"
          transform="translate(-9.45 -10.88)"/>
    <path class="cls-1"
          d="M150.87,68l-1-1.41h-1.08V68h-1.16v-5h2.18a2.76,2.76,0,0,1,1.16.22,1.73,1.73,0,0,1,0,3.2L152.12,68Zm-.3-3.87a1.23,1.23,0,0,0-.8-.22h-1v1.76h1a1.18,1.18,0,0,0,.8-.24.77.77,0,0,0,.28-.64A.8.8,0,0,0,150.57,64.08Z"
          transform="translate(-9.45 -10.88)"/>
    <path class="cls-1"
          d="M154.32,67.87a2.38,2.38,0,0,1-.89-.42l.39-.88a2.93,2.93,0,0,0,.77.39,3.13,3.13,0,0,0,.9.14,1.4,1.4,0,0,0,.73-.15.45.45,0,0,0,.24-.39.39.39,0,0,0-.14-.3,1.23,1.23,0,0,0-.36-.19l-.6-.16a8.81,8.81,0,0,1-.94-.27,1.6,1.6,0,0,1-.63-.44,1.16,1.16,0,0,1-.26-.81,1.49,1.49,0,0,1,.23-.8,1.66,1.66,0,0,1,.72-.56,2.91,2.91,0,0,1,1.17-.21,3.81,3.81,0,0,1,.95.12,2.5,2.5,0,0,1,.8.33l-.36.88a2.83,2.83,0,0,0-1.4-.39,1.28,1.28,0,0,0-.72.16.46.46,0,0,0-.23.41.41.41,0,0,0,.27.39,4.32,4.32,0,0,0,.82.25,8.41,8.41,0,0,1,.95.27,1.69,1.69,0,0,1,.63.43,1.2,1.2,0,0,1,.26.8,1.39,1.39,0,0,1-.24.79,1.59,1.59,0,0,1-.73.57,2.91,2.91,0,0,1-1.17.21A4.12,4.12,0,0,1,154.32,67.87Z"
          transform="translate(-9.45 -10.88)"/>
    <path class="cls-1" d="M159.29,62.91h1.17v5h-1.17Z" transform="translate(-9.45 -10.88)"/>
    <path class="cls-1"
          d="M162.52,62.91h2.3a3.22,3.22,0,0,1,1.45.31,2.39,2.39,0,0,1,1,.88,2.68,2.68,0,0,1,0,2.65,2.41,2.41,0,0,1-1,.89,3.22,3.22,0,0,1-1.45.31h-2.3ZM164.76,67a1.69,1.69,0,0,0,1.2-.42,1.64,1.64,0,0,0,0-2.28,1.69,1.69,0,0,0-1.2-.43h-1.07V67Z"
          transform="translate(-9.45 -10.88)"/>
    <path class="cls-1" d="M172.6,66.87h-2.35L169.81,68h-1.2l2.25-5H172l2.26,5H173Zm-.37-.89-.8-1.93-.8,1.93Z"
          transform="translate(-9.45 -10.88)"/>
    <path class="cls-1"
          d="M175.67,62.91H178a3.22,3.22,0,0,1,1.45.31,2.39,2.39,0,0,1,1,.88,2.68,2.68,0,0,1,0,2.65,2.41,2.41,0,0,1-1,.89A3.22,3.22,0,0,1,178,68h-2.29ZM177.9,67a1.71,1.71,0,0,0,1.21-.42,1.67,1.67,0,0,0,0-2.28,1.72,1.72,0,0,0-1.21-.43h-1.07V67Z"
          transform="translate(-9.45 -10.88)"/>
    <path class="cls-1"
          d="M95.56,33.06c.27-.91.67-2.29,1.11-4.17.6,0,2.55.06,3.16.13.1,1.31.14,3.6.14,4.84l-.48,1A15.72,15.72,0,0,1,91,37.13c-7.44,0-12.12-4.58-12.12-12.05s5.86-12.65,12.86-12.65a17.19,17.19,0,0,1,8,2l.51.91c-.3,1.75-.78,4.2-1.11,5.88-.64,0-2.22,0-2.93-.13a25.81,25.81,0,0,0-.94-4.54,7.77,7.77,0,0,0-4.17-1.08,8,8,0,0,0-4.48,1.25A12.63,12.63,0,0,0,84,24.78C84,30.3,86.88,34,91.55,34A7.47,7.47,0,0,0,95.56,33.06Z"
          transform="translate(-9.45 -10.88)"/>
    <path class="cls-1"
          d="M103.3,25.49c0-7.78,5.58-13.06,12.38-13.06,6.63,0,11.24,4.51,11.24,11.64,0,7.64-5.22,13.06-12,13.06S103.3,32.62,103.3,25.49ZM120,32.62a14.24,14.24,0,0,0,1.81-7.54c0-5.85-2.12-9.62-6.79-9.62a7.06,7.06,0,0,0-4.31,1.31,13.75,13.75,0,0,0-2.32,8.11c0,5.72,2.62,9.29,7.13,9.29A6.44,6.44,0,0,0,120,32.62Z"
          transform="translate(-9.45 -10.88)"/>
    <path class="cls-1"
          d="M147.56,36.69l-3-4.2c-3-4-6.7-8.72-9.63-12.39,0,6.67.21,12.82.54,13.5.37.47,2.32.84,3.87,1.21L139,36.56h-9.79l-.37-1.75,3-.91c.14-1.11.24-4.14.24-9,0-5.49-.07-8.35-.4-8.85a12.4,12.4,0,0,0-2.9-1.25l.37-1.75c2.16,0,4.71-.06,6.73-.1,2.12,3.84,7.88,10.94,12.38,16.52-.06-7.06-.27-12.82-.6-13.45-.3-.44-2.26-.88-3.53-1.22L144.5,13h9.75l.37,1.75-3,.95c-.3,2.49-.43,10.43-.43,20.65Z"
          transform="translate(-9.45 -10.88)"/>
    <path class="cls-1"
          d="M165.47,36.56h-9.82l-.37-1.75,2.86-1.15c2.25-4.91,4.67-11.17,7-17.19l1.11-3.26a26,26,0,0,1,5.15-.58,28.59,28.59,0,0,0,1.25,3.87c2.35,6,5,13,6.79,17.26l3.1,1.05-.37,1.75H171.59l-.36-1.75,3.12-.91c-.53-1.48-1.11-3.16-1.78-5l-8.95.17c-.57,1.61-1.08,3.2-1.55,4.68l3.81,1.11Zm6.23-10.2c-1.08-3-2.33-6.32-3.67-9.69-1.21,3.13-2.39,6.43-3.5,9.59Z"
          transform="translate(-9.45 -10.88)"/>
    <path class="cls-1"
          d="M188.91,33.9c.1-.64.23-4.34.23-6.19V21.85c0-2,0-5.38-.4-5.88s-1.75-.91-2.83-1.22l.37-1.75h4.88c1.14,0,4.85-.2,6.43-.2,5.45,0,8.78,2,8.78,6.09,0,2.63-1.75,4.41-3.8,5.45,2.76.71,5,2.53,5,5.76,0,4.44-4.07,6.73-8.81,6.73-2.12,0-5.12-.27-7.4-.27h-5.12l-.37-1.75Zm4.91-10.47,5.28.21a5,5,0,0,0,2.42-4.38,4.45,4.45,0,0,0-.94-3,5.9,5.9,0,0,0-3.56-.94,17.78,17.78,0,0,0-2.66.23l-.31.1c-.1.64-.23,4.34-.23,6.19Zm.57,10.33a9.68,9.68,0,0,0,3.6.54,9.88,9.88,0,0,0,3-.4,4.67,4.67,0,0,0,1.79-3.8c0-2.33-1.49-3.87-4.48-3.87h-4.44v1.48c0,2,0,5.38.4,5.89A.88.88,0,0,0,194.39,33.76Z"
          transform="translate(-9.45 -10.88)"/>
    <path class="cls-1"
          d="M213.74,33.9c.11-.64.24-4.34.24-6.19V21.85c0-2,0-5.38-.4-5.88s-1.75-.91-2.83-1.22l.37-1.75h10.4l.37,1.75-3,.91c-.1.64-.23,4.34-.23,6.19v5.86c0,2,0,5.38.4,5.89s1.75.9,2.83,1.21l-.37,1.75h-10.4l-.37-1.75Z"
          transform="translate(-9.45 -10.88)"/>
    <path class="cls-1"
          d="M224.38,25.49c0-7.78,5.59-13.06,12.38-13.06,6.63,0,11.24,4.51,11.24,11.64,0,7.64-5.21,13.06-12.05,13.06S224.38,32.62,224.38,25.49Zm16.69,7.13a14.23,14.23,0,0,0,1.82-7.54c0-5.85-2.12-9.62-6.8-9.62a7.06,7.06,0,0,0-4.31,1.31,13.75,13.75,0,0,0-2.32,8.11c0,5.72,2.63,9.29,7.13,9.29A6.42,6.42,0,0,0,241.07,32.62Z"
          transform="translate(-9.45 -10.88)"/>
    <path class="cls-2"
          d="M49.76,20.78a.64.64,0,1,1,0,1.26.64.64,0,1,1,0-1.26m-1.94-1.73a5.5,5.5,0,0,1,3.4-.07A13.5,13.5,0,0,1,54,20.2a12.85,12.85,0,0,1,2.34,2.32,2.5,2.5,0,0,1,0,1.46,3.18,3.18,0,0,1-.89,1.1,10.59,10.59,0,0,1-2.68,1,19.35,19.35,0,0,1-2.25.25c-.45-.05-3.09-1.25-3.28-1.21s-.63,1-.63,1a2.89,2.89,0,0,1-1.39-2.57,3.51,3.51,0,0,1,.8-2.46c.17-.23.66-.39.8-.7A2.59,2.59,0,0,1,47.82,19.05Z"
          transform="translate(-9.45 -10.88)"/>
    <path class="cls-2"
          d="M55.48,25.93c.67-.47,1.15-1.27,1.28-1.26A5.77,5.77,0,0,1,58.36,26,22.52,22.52,0,0,1,60,28.26a22.09,22.09,0,0,1,2.87,5.62,27.51,27.51,0,0,1,.21,7.3c-.28,2.23-.43,4.51-.47,4.61s-.44,1-.85.73a27.55,27.55,0,0,1-8-9.4c-.44-.85-.82-1.67-1.2-2.43a38.35,38.35,0,0,1-1.66-3.95,10.79,10.79,0,0,1-.68-2.61,1.76,1.76,0,0,1,.29-1.2,3.61,3.61,0,0,1,.71.07,8.79,8.79,0,0,0,1.24,0,4.68,4.68,0,0,0,3.11-1.11"
          transform="translate(-9.45 -10.88)"/>
    <path class="cls-2"
          d="M56.07,42.3c.25-.09.46.37.79.68s2.18,2.07,2.56,2.54a5.37,5.37,0,0,1,1,1.57c.2.58.26,1-.17,3s-2.51,10.51-3.7,14.4-1.31,4.77-1.41,5-.19.59-.68.53-.65-.21-.73-.79a29.38,29.38,0,0,1,0-4.91c.17-2.05.73-5.65.73-7.73s-.28-3.11-.21-4.57a60.27,60.27,0,0,1,1-7.06c.29-1.27.52-2.56.76-2.63"
          transform="translate(-9.45 -10.88)"/>
    <path class="cls-2"
          d="M41.5,27.68c0-.71.46-.82,1.34-.91A4.86,4.86,0,0,1,45,27a19,19,0,0,1,2.16,1A14.77,14.77,0,0,1,49,29.88a12.21,12.21,0,0,1,2,3.34,5.54,5.54,0,0,1,.51,2.16,7.61,7.61,0,0,1-1.27,1.83A4.72,4.72,0,0,1,46,39c-2.61-.21-3.84-2.25-4.51-2.69a6.75,6.75,0,0,0-1.48-1c-.71-.27-.79-.55-.69-.95s.42-.79,1.27-.75a11.81,11.81,0,0,1,1.84.28,1.51,1.51,0,0,0-.84-.58c-.59-.17-1.71-.22-2.43-.42s-.57-.63-.56-.74,0-.79,1-.89,3.05-.13,3.05-.13-2.76-.49-3.07-.59a.61.61,0,0,1-.44-.69.88.88,0,0,1,.77-.91,6.49,6.49,0,0,1,1.77-.18c.69,0,2.58.38,2.58.38s0-.25-.63-.51-2.16-.34-2.15-1"
          transform="translate(-9.45 -10.88)"/>
    <path class="cls-2"
          d="M44.2,40.88c-.06-.58,0-.79.16-.85A25.45,25.45,0,0,1,47,39.47a13.58,13.58,0,0,0,2.4-.4,3.92,3.92,0,0,0,.92-.56A7.31,7.31,0,0,1,52.17,37c.41-.1.75-.18,1.09.34a1.44,1.44,0,0,1,.27,1.36A5.28,5.28,0,0,1,51.27,41a4.31,4.31,0,0,1-2.32.9,22.84,22.84,0,0,1-3.72.12c-.9-.17-1-.58-1-1.16"
          transform="translate(-9.45 -10.88)"/>
    <path class="cls-2"
          d="M45.13,42.82c.87,0,3.66,0,4.09-.13A5.61,5.61,0,0,0,51.31,42a13.49,13.49,0,0,1,2.36-1.46c.19,0,.85.23.88.79a2.92,2.92,0,0,1-1,2.52c-1.08,1.06-3.06,1.3-4.24,1.52a13.62,13.62,0,0,1-2.73.32c-.42,0-2.05-.23-2.14-.89s-.15-1.93.74-1.93"
          transform="translate(-9.45 -10.88)"/>
    <path class="cls-2"
          d="M53.71,45.27a17,17,0,0,1-.31,5.14c-.43,1.94-1.88,7.74-2.14,8.17a11.41,11.41,0,0,1-2.87,1.76c-.62.28-2.14.81-2.24.82s-.84.35-.81-.58a76.78,76.78,0,0,0-.06-8.39c-.28-3-.33-4.32-.38-4.69s-.11-1,.53-1a32.71,32.71,0,0,0,4-.22c1.42-.23,4.15-.9,4.32-1"
          transform="translate(-9.45 -10.88)"/>
    <path class="cls-2"
          d="M25.74,51.57c.08,0,.39.45.53.64s2.8,3.85,6.57,4.64,5-.12,5.42-.59a17.87,17.87,0,0,0,1.43-3.38,2.07,2.07,0,0,1,1.58-1.46,7,7,0,0,1,1.32-.23,3.26,3.26,0,0,1,1.79.28c.41.35.45,3.22.27,4.79s-.58,4.6-.67,4.81-1.63,1-4.87,1.09-9.09-1-12.21-2.65a20.19,20.19,0,0,1-5.64-4.1c-1.24-1.24-1-1.12-.88-1.42s.34-.83.52-.89,1.19-.12,2-.29A5.76,5.76,0,0,0,25.14,52c.39-.38.51-.45.6-.45"
          transform="translate(-9.45 -10.88)"/>
    <path class="cls-2"
          d="M59.14,60.05c.32.18,1.26-.29,2.67-1.69a17.53,17.53,0,0,0,2.43-2.94,33.47,33.47,0,0,0,3.93-9.37A28.1,28.1,0,0,0,69,38.69,36.46,36.46,0,0,0,67,28c-1.28-2.88-2.43-6.14-5-8.49A32.22,32.22,0,0,0,49,12.24a30.4,30.4,0,0,0-9-1.36,55.45,55.45,0,0,0-9.53.89A42.74,42.74,0,0,0,25.82,13c-.82.19-8.89,3.79-12.35,9.65a32.14,32.14,0,0,0-4,16.64c.2,3.68,1.1,13.79,6.29,19.6s11.49,8.35,21.71,8.89,15.45-3.58,15.45-3.58l.64-5a36.12,36.12,0,0,1-14.73,4c-7.7.15-14.81-2.79-19.11-7.64S14,41.24,14.66,34.58,18.28,21.19,27.45,17.7s20.22-.64,23.22.21,11.45,6.33,13.15,16.48-1.6,14.68-2.39,16.55-1.87,3.8-2.08,5.41-.53,3.51-.21,3.7"
          transform="translate(-9.45 -10.88)"/>
    <path class="cls-2"
          d="M21.25,45.14c.65-.07,1.71.58,1.74,1.17a1.26,1.26,0,0,1-1,1.41c-.77.13-2,.15-2.28-.59a1.3,1.3,0,0,1,.46-1.66,1.8,1.8,0,0,1,1.1-.33m-.32-.45c1.41,0,3,1.12,3,2.42a1.82,1.82,0,0,1-2.07,2c-1.28-.11-3-.7-2.88-2.52A2.08,2.08,0,0,1,20.93,44.69ZM31.28,38a2.66,2.66,0,0,1,2.36-.44,1.54,1.54,0,0,1-.27.79,5.4,5.4,0,0,1-.91,1.07,2.33,2.33,0,0,1-2.09.69C30.17,39.93,30.42,38.8,31.28,38Zm8.31,2.34c.2.17-.11.7-.24.78s-.52.45-.85.16-.16-.63.31-.88S39.42,40.19,39.59,40.36ZM37.16,17.05c.55,0,1.57,2.29,1.72,3.61a11.33,11.33,0,0,1-.41,5.85c-.93,2.55-2.38,4.56-2.83,4.62l-.92.14a6.16,6.16,0,0,0-3.89-1.4,8.43,8.43,0,0,0-5.27,2.33,7.59,7.59,0,0,0-2.73,4.19,8.5,8.5,0,0,0,.32,4.12c.47,1,.67.87.67.87s.33.09.38,0-1-3.18-.32-5.1,1.45-3.63,4.88-5.09c3.12-1.32,4.5.62,5.36,1.25s1.52,1,2.08,1.38a30.59,30.59,0,0,1,5,4c1.32,1.52,1.47,1.61,1.32,2.18s-.92,1.22-.88,1.61.71,1.36.4,2a2.44,2.44,0,0,1-1.38,1.26c-.85.42-1.18,1-1.16,1.11s.39.08.71,0a2.25,2.25,0,0,1,1.24-.31c.61.07,1.38.17,1.61,1.61s.25,2.14-.26,2.78a3.29,3.29,0,0,1-1.77.93c-.62.24-1.29.26-1.58.58a7.65,7.65,0,0,0-1.15,2.78,3.52,3.52,0,0,1-1,2,13.65,13.65,0,0,1-5.25-.35,9.35,9.35,0,0,1-3.86-2.65,19.75,19.75,0,0,1-2.06-2.31h-.64A4.33,4.33,0,0,1,22,52.16c-2-.33-5.42-1.55-5.37-5.69s2.83-4.53,3-4.78.2-.64-.38-.63a4.8,4.8,0,0,0-2,.66c-.55.36-1.58,1.18-1.66.42a3.87,3.87,0,0,1,2.1-3.78c2-1,2.42-.78,2.38-1.5s-1.52-.42-2-.23a10.73,10.73,0,0,0-1.68.88c-.08.12-.84.69-.84-.14a4,4,0,0,1,1.95-3.48c1.64-1,3.39-.56,3.44-1.17s-.69-.81-1.32-.74a9.22,9.22,0,0,0-2.76.93c-.33.29-.91.34-.76-.5A4.46,4.46,0,0,1,19,29c2-.6,3.66.48,3.84.12s0-1.06-.82-1.44a3.11,3.11,0,0,0-2.63-.17c-1.23.38-1.49.19-1.29-.28a3.86,3.86,0,0,1,3.76-2.9c2.9,0,3.65,2.68,4.33,2.49s-.28-2.38-.85-3.27-2.52-2.32-1.78-2.85,2.55-.33,3.68.39,1.13.87,1.43,1.29,1.41,2.93,1.65,2.84.35-1.57.14-2.62a12,12,0,0,0-2-3.79c-.43-.39-.34-.74.43-.78a5.17,5.17,0,0,1,4,1.67A6.44,6.44,0,0,1,34,24.05c-.12.37-.07,1.31.44.75a9.45,9.45,0,0,0,1.88-4.17C36.56,18.83,36.61,17.06,37.16,17.05Z"
          transform="translate(-9.45 -10.88)"/>
</svg>
