<svg id="b8a25ccb-cd3c-4bc6-87d9-72c8265a2de4" data-name="Capa 1" xmlns="http://www.w3.org/2000/svg"
     xmlns:xlink="http://www.w3.org/1999/xlink" viewBox="0 0 333 328">
    <defs>
        <style>
            .b90dec55-2f9f-45ad-911b-61caf4f5efda{fill:#56400a;}.a33b8f18-9625-4aa2-9136-9c5b781790ac,.aa681275-b0e7-48df-af15-99f2b891e90e,.abab41f3-2062-4df6-a391-5674b8112996,.b5c4c8b3-50e8-487f-96a8-242d4c1cc859,.ba95cfbf-7d43-431e-9887-0e8237a88db5,.bfbb9318-f744-4956-85bd-4a298c5c0b94,.e602e266-a5f2-412c-aa9c-133ce14b9614,.eacb0e5d-7397-4ad8-906e-670698b07bdb,.ec040717-9375-43a8-b035-89df652f83c8,.f5879e35-4915-46cb-85be-929f2bbd144e,.f95793a9-291f-42a8-836b-b727879b597d{fill:none;stroke-linecap:round;stroke-linejoin:round;}.a33b8f18-9625-4aa2-9136-9c5b781790ac,.abab41f3-2062-4df6-a391-5674b8112996,.b5c4c8b3-50e8-487f-96a8-242d4c1cc859,.bfbb9318-f744-4956-85bd-4a298c5c0b94,.e602e266-a5f2-412c-aa9c-133ce14b9614,.eacb0e5d-7397-4ad8-906e-670698b07bdb,.ec040717-9375-43a8-b035-89df652f83c8,.f5879e35-4915-46cb-85be-929f2bbd144e,.f95793a9-291f-42a8-836b-b727879b597d{stroke:#000;}.eacb0e5d-7397-4ad8-906e-670698b07bdb{stroke-width:1.33px;}.bf856564-1882-4a92-ad24-368a86499936{fill:#3d2c07;opacity:0.69;}.b24b7df3-0a3f-4715-8e6a-2c74f2c6c4b4,.ed2a238f-a01a-4df6-935c-37b75e777a1e,.ee072043-df37-41b5-bf93-97fc94012202,.fb2fed9d-a368-4393-8103-b9681a611273{fill:#ccc;}.b24b7df3-0a3f-4715-8e6a-2c74f2c6c4b4,.ed2a238f-a01a-4df6-935c-37b75e777a1e,.fb2fed9d-a368-4393-8103-b9681a611273{stroke:#1d1d1b;stroke-miterlimit:10;}.fb2fed9d-a368-4393-8103-b9681a611273{stroke-width:1.39px;}.a32587c5-15bd-4bae-80b8-8de9e57144ba{fill:#999;}.a8fc163b-ebd0-4bf5-a04e-16627f9e9c6e{fill:#fff;}.a57c683a-d6ff-474e-bb31-5db3ed61972f{fill:#6f6f00;}.a6c0772d-daf8-4079-b1c5-65a2d1b46cf0{fill:#828200;}.b86bd878-9092-4ab9-b204-dd56d1e19793{fill:#d0b08e;}.ec040717-9375-43a8-b035-89df652f83c8{stroke-width:1.34px;}.ba95cfbf-7d43-431e-9887-0e8237a88db5,.ed2a238f-a01a-4df6-935c-37b75e777a1e,.f95793a9-291f-42a8-836b-b727879b597d{stroke-width:1.41px;}.a1fe459d-02f1-48ae-a415-ec7b2b268e33{fill:#f38e1d;}.ab159099-22bb-43b3-bd3d-c2930447491f{fill:#cd7418;}.a71b3d8b-23cc-48db-87d8-23ba752b0428{fill:#630;}.a33b8f18-9625-4aa2-9136-9c5b781790ac{stroke-width:1.27px;}.fc40097e-1e4a-4f98-85c1-197309b6448a{fill:#d6b898;}.b5c4c8b3-50e8-487f-96a8-242d4c1cc859{stroke-width:1.13px;}.e602e266-a5f2-412c-aa9c-133ce14b9614{stroke-width:1.55px;}.aa681275-b0e7-48df-af15-99f2b891e90e,.ba95cfbf-7d43-431e-9887-0e8237a88db5{stroke:#0f1010;}.a4d1eb32-ead7-480a-b24c-b6f6db66c06f{fill:#cd7417;}.f1712d2e-9030-4294-ad9d-fa33c6e28980{fill:#a62424;}.f6336248-acec-4c0e-9f86-cfb888a4e729{fill:#8b2020;}.bfbb9318-f744-4956-85bd-4a298c5c0b94{stroke-width:0.85px;}.b3a3ed80-0762-4982-8f85-a42602b57155{fill:#666;}.b0e04268-f8b4-44ca-a7e6-d1d5ea616918{fill:#4a2205;}.b7e1a0e4-dc00-4202-bb76-3043a8ee7bb5{fill:#3d1d03;}.b338a555-4523-462b-b505-96c3f3528c04{fill:#0f1010;}.e4941364-bea1-4c30-b1c0-fce1b7df0029{fill:#fbf6c7;}.aa681275-b0e7-48df-af15-99f2b891e90e{stroke-width:1.83px;}.f5879e35-4915-46cb-85be-929f2bbd144e{stroke-width:1.41px;}.a4f105dc-8e4f-4210-827d-d2fd0bbdb146{fill:url(#a89daea2-24c8-4d9f-b2f6-16bb4e870b7e);}.e0c99f82-0ca4-415b-97e4-065b94e5c633{fill:#fcfdff;}.aafe4224-f590-4e64-9558-cd968d7ac6d6{fill:#3b2314;}.a88abb45-c5cb-4482-b56b-27d9bdda0aeb{filter:url(#f8c44ac3-9668-44c2-8fd9-1033217a317f);}.a14b03f7-3687-47a2-9693-79e5317d4ea0{fill:url(#bc90e879-817f-4f76-be50-8f900430ef53);}.e885e90f-2807-4b23-9f33-d8e928e0358d{fill:url(#fd8a62d6-66a1-4c8e-b61e-f1d13d0e8a59);}.f04775d0-498a-44f4-957b-08be63ca4181{fill:url(#f2b9a18c-ca34-4b9b-b11b-1cbc16ad8d98);}.e490bd51-4319-4ac8-86ac-858f60d33e20{fill:#de5550;}.b7520115-b727-4fe3-82b8-2d499e27f5e2{fill:#893431;}.abab41f3-2062-4df6-a391-5674b8112996{stroke-width:1.06px;}.b3e8b615-5915-48b6-936f-5b87cc137ee5{fill:red;}.b24b7df3-0a3f-4715-8e6a-2c74f2c6c4b4{stroke-width:1.32px;}
        </style>
        <radialGradient id="a89daea2-24c8-4d9f-b2f6-16bb4e870b7e" cx="-3534.24" cy="521.45" r="56.11"
                        gradientTransform="matrix(-0.56, 0.12, 0.1, 0.46, -1898.81, 270.77)"
                        gradientUnits="userSpaceOnUse">
            <stop offset="0" stop-color="#fff"/>
            <stop offset="0.5" stop-color="#ce9539"/>
            <stop offset="1" stop-color="#603813"/>
        </radialGradient>
        <filter id="f8c44ac3-9668-44c2-8fd9-1033217a317f" x="-64.94" y="-73.04" width="229.88" height="246.08"
                name="Filter_1">
            <feGaussianBlur result="result1" stdDeviation="3.33" in="SourceGraphic"/>
        </filter>
        <radialGradient id="bc90e879-817f-4f76-be50-8f900430ef53" cx="-127.91" cy="-105.22" r="14.18"
                        gradientTransform="matrix(0.76, -0.38, -0.38, -0.76, 213.5, -23.02)"
                        gradientUnits="userSpaceOnUse">
            <stop offset="0" stop-color="#900" stop-opacity="0.2"/>
            <stop offset="0.56" stop-color="#db222f" stop-opacity="0.07"/>
            <stop offset="1" stop-color="#ff3548" stop-opacity="0"/>
        </radialGradient>
        <radialGradient id="fd8a62d6-66a1-4c8e-b61e-f1d13d0e8a59" cx="-143.15" cy="-100.19" r="14.18"
                        gradientTransform="matrix(0.76, -0.38, -0.38, -0.76, 175.35, -10.62)"
                        gradientUnits="userSpaceOnUse">
            <stop offset="0" stop-color="#900" stop-opacity="0.2"/>
            <stop offset="0.11" stop-color="#a9080b" stop-opacity="0.17"/>
            <stop offset="0.63" stop-color="#e82938" stop-opacity="0.04"/>
            <stop offset="1" stop-color="#ff3548" stop-opacity="0"/>
        </radialGradient>
        <radialGradient id="f2b9a18c-ca34-4b9b-b11b-1cbc16ad8d98" cx="397.37" cy="1396.85" r="34.02"
                        gradientTransform="matrix(0.47, -0.33, 0.28, 0.42, -480.04, -354.49)"
                        xlink:href="#a89daea2-24c8-4d9f-b2f6-16bb4e870b7e"/>
    </defs>
    <title>lunapiedras</title>
    <g id="b644a87f-8f77-45da-9cec-072c48204ab7" data-name="Layer2 4 FILL">
        <path class="b90dec55-2f9f-45ad-911b-61caf4f5efda"
              d="M224.75,125.24q-25.75,3.95-58.49,12-58.2-12.17-99.23-10a183.76,183.76,0,0,0-26.85,3.39A119.11,119.11,0,0,0,17,138a37.11,37.11,0,0,0-3.95,2.51,24.46,24.46,0,0,0-6.48,6.46q-6.76,10.49,11.49,18.32l6.41,2a73.43,73.43,0,0,1,14,6.78l1.76,1.13a49.49,49.49,0,0,1,8,6.71,31.12,31.12,0,0,1,9,24.47q-.49,7.84-1.69,22-.15,11.22,4,17.75,10.44,16.32,59.69,17.38,49.55,1.07,87.81,13.05A170.47,170.47,0,0,1,224.75,283q3.92,1.76,7.32,3.58,9,4.83,11.49,8.59,4.31,6.53,33.83,11.86,28.82,5.26,38.05,2.26,22.82-9.12-2.11-160.93Q299.67,113.91,224.75,125.24Z"/>
    </g>
    <path id="ab0e07ca-4aa1-463f-a49a-0130b878a690" data-name="Layer2 4 1 STROKES"
          class="eacb0e5d-7397-4ad8-906e-670698b07bdb"
          d="M17.82,165.2l6.41,2a74,74,0,0,1,14,6.77c.6.39,1.19.77,1.76,1.17a48.37,48.37,0,0,1,8,6.68,31.12,31.12,0,0,1,9,24.47q-.49,7.83-1.69,21.95-.15,11.24,4,17.76,10.44,16.31,59.69,17.38,49.55,1.07,87.81,13.05a165.77,165.77,0,0,1,17.76,6.49q3.92,1.72,7.32,3.54,9,4.84,11.49,8.6,4.31,6.53,33.83,11.86,28.82,5.26,38.05,2.26,22.82-9.12-2.11-160.93-13.66-34.42-88.58-23-25.75,3.92-58.49,12-58.2-12.16-99.23-9.94a178.49,178.49,0,0,0-26.85,3.38,118.43,118.43,0,0,0-23.18,7.25,35.58,35.58,0,0,0-4,2.51,24.46,24.46,0,0,0-6.48,6.46Q-.43,157.37,17.82,165.2Z"/>
    <path class="bf856564-1882-4a92-ad24-368a86499936"
          d="M175,245.49c1.08,6.46,10.43,9.41,21.63,4.39,10.32-4.62,18.32-9.62,17.5-13.46-1.06-4.94-10.83-6.89-21.64-4.39S174.17,240.5,175,245.49Z"/>
    <path class="bf856564-1882-4a92-ad24-368a86499936"
          d="M166.86,222.73c-2.7,6.59,5.09,14.9,19.48,17,13.25,1.92,24.36,2.12,25.78-1.91,1.83-5.19-7-12.83-19.48-17S168.94,217.64,166.86,222.73Z"/>
    <path class="bf856564-1882-4a92-ad24-368a86499936"
          d="M64.61,195.35c-.24,6.55,8.31,11.33,20.3,8.69,11-2.43,19.89-5.7,19.86-9.63,0-5.06-9.2-8.95-20.29-8.69S64.8,190.3,64.61,195.35Z"/>
    <path class="bf856564-1882-4a92-ad24-368a86499936"
          d="M33.14,151.58c-.34,6.79,8.14,6.36,24.12,14.24,4,2,6.7,7.55,13.3,7.17s15.4-.54,19-5c3.21-3.95,7.79.26,10.94-7.57,2.4-6-23.24-22.75-39-22.38S33.47,145.13,33.14,151.58Z"/>
    <path class="bf856564-1882-4a92-ad24-368a86499936"
          d="M181.33,247.64c1.18-6.52-21.72-11.83-54.56-9.93-30.25,1.75-54.59,4.47-54.82,8.39-.29,5.06,24.36,9.51,54.56,9.93S180.42,252.68,181.33,247.64Z"/>
    <path class="bf856564-1882-4a92-ad24-368a86499936"
          d="M208.22,264.66c-.42,8.15,10.31,14.26,25.5,11.16C247.73,273,259,269,259,264.15c0-6.31-11.48-11.31-25.5-11.17S208.55,258.36,208.22,264.66Z"/>
    <path class="bf856564-1882-4a92-ad24-368a86499936"
          d="M237.24,277.91c-.4,6.95,9.62,12.15,23.82,9.5,13.09-2.44,23.59-5.8,23.63-10,0-5.38-10.72-9.63-23.82-9.5S237.55,272.54,237.24,277.91Z"/>
    <path class="bf856564-1882-4a92-ad24-368a86499936"
          d="M298.58,290.53c.4-6.95-9.62-12.15-23.82-9.5-13.09,2.45-23.59,5.81-23.62,10,0,5.38,10.72,9.63,23.82,9.5S298.27,295.91,298.58,290.53Z"/>
    <path class="fb2fed9d-a368-4393-8103-b9681a611273"
          d="M110.43,204.54c.1-.07.22-.11.32-.18a6.51,6.51,0,0,0,1.54-1.42l.93-1.53a6.84,6.84,0,0,0,.58-3.27c-.53-1.22-1.1-2.43-1.69-3.64a6.42,6.42,0,0,0-.79-.66l-.16-.11-.19-.11a7.57,7.57,0,0,0-.8-2.33,5.3,5.3,0,0,0,0-.8,11.43,11.43,0,0,0-.43-2c-.14-.41-.29-.81-.45-1.21-5-11.53-28.79-10.84-38.07-6.27-5.69,2.8-9,9.33-5.38,15,3,4.77,9.24,5.8,15.17,6.27.4.1.81.18,1.22.26a5.91,5.91,0,0,1,2.08.41c.93.37,1.84.76,2.74,1.16,7.06,2.13,16.4,3.83,22.42,1A6.89,6.89,0,0,0,110.43,204.54Z"/>
    <path class="a32587c5-15bd-4bae-80b8-8de9e57144ba"
          d="M80.7,201.66S86.37,188.21,95.9,185s7.83-2.63,7.83-2.63.74,0,1.45,1.12-20.07,19.2-20.07,19.2S83.75,201.37,80.7,201.66Z"/>
    <g id="f898fe5e-d5bc-44f3-8af8-45822afca4c0" data-name="Layer2 5 MEMBER 0 FILL">
        <path class="a8fc163b-ebd0-4bf5-a04e-16627f9e9c6e"
              d="M159.29,212h.07l-1.27,1.13-1.27,2.75q-.19-.51-.42-1a.08.08,0,0,1-.07-.07l-.42.42c.13-.14.28-.31.42-.49a7.89,7.89,0,0,0-4-3.53l5.29.36-.07-.07h.14a10.29,10.29,0,0,0,1.62.49m3.59-10.15.21-1.76a4.26,4.26,0,0,0,.08-.71q.14,2.26,2,2.19a4.74,4.74,0,0,1,.77,2.25,9.61,9.61,0,0,1,.15,2.4,21.24,21.24,0,0,1-.36,2.75l.07-2,.21-.64-.21.21v-.35l.21-1.2H166v.14l-.21,1.06-.14.63-.21.36a8,8,0,0,1-2.75,3.87,1.79,1.79,0,0,0,.35-.56l-2.39.84a1.45,1.45,0,0,1-.28-.14.73.73,0,0,0,.07.21l-1.84.29.08.07a4.13,4.13,0,0,1-1-.21h-.07a6.64,6.64,0,0,0,2.25-.36c1.32-.33,2.19-3.13,2.61-8.38a12.39,12.39,0,0,0,.49-2.4l-.07,1.48m.14-3.38.15.49-.22,1.41a12.39,12.39,0,0,1-.49,2.4C162.7,201.46,162.88,200,163,198.43Z"/>
        <path class="a57c683a-d6ff-474e-bb31-5db3ed61972f"
              d="M162.67,211a3.32,3.32,0,0,1-1.55,1.13,5,5,0,0,1-1.76-.14h-.07a10.29,10.29,0,0,1-1.62-.49,6.07,6.07,0,0,0,1.13.28l-.14-.07c2.13-.06,3.47-.3,4-.71m.35-.56a1.79,1.79,0,0,1-.35.56c-.54.41-1.88.65-4,.71l-.08-.07,1.84-.29a.73.73,0,0,1-.07-.21,1.45,1.45,0,0,0,.28.14l2.39-.84m2.82-3.52v-.43l.21-.21-.21.64m0-.43-.42.64.21-.36Z"/>
        <path class="a6c0772d-daf8-4079-b1c5-65a2d1b46cf0" d="M165.84,206.46l-.21.28.14-.63h.07Z"/>
        <path class="b86bd878-9092-4ab9-b204-dd56d1e19793"
              d="M162.88,198.43H163c-.14,1.6-.32,3-.56,4.3-.42,5.25-1.29,8.05-2.61,8.38a6.64,6.64,0,0,1-2.25.36h-.07l.07.07-5.29-.36q-5.77-2.84-7.61-24.87l18.25-.5a37.15,37.15,0,0,0-.07,8.67,20.17,20.17,0,0,1,.21,2.82l-.07,1Z"/>
    </g>
    <path id="f1f4a7d4-9698-4483-82a3-b0a08577cc47" data-name="Layer2 5 MEMBER 0 1 STROKES"
          class="ec040717-9375-43a8-b035-89df652f83c8"
          d="M163,198.43h-.14l.14-.14.07-1a20.17,20.17,0,0,0-.21-2.82,36.8,36.8,0,0,1,.07-8.63m.07,12.58.15.49-.22,1.41a12.39,12.39,0,0,1-.49,2.4C162.7,201.46,162.88,200,163,198.43Zm-.07,1.9-.07,1.48.21-1.76a4.26,4.26,0,0,0,.08-.71m2.88,6.91-.21.21m-.21.28-.21.36a8.24,8.24,0,0,1-2.75,3.91m-4,.67a4.74,4.74,0,0,1-1-.18l-.18,0h.11a6.91,6.91,0,0,0,2.22-.32q2-.54,2.64-8.42m.63-2.68-.14.28m2.89,6.13-.21.28m-3,4.27c-.54.38-1.88.61-4,.67m-1.17-.21.11.07-5.29-.36"/>
    <path id="ec6eaeb5-cc43-4c62-a882-d9fe9eaabb02" data-name="Layer2 5 MEMBER 0 2 STROKES"
          class="f95793a9-291f-42a8-836b-b727879b597d"
          d="M144.7,186.31l18.25-.46m-18.25.46a4.17,4.17,0,0,0,0-.5m7.61,25.37q-5.77-2.84-7.61-24.87h-.42"/>
    <g id="a1d8dddc-19f7-4793-a79f-fcc86a286b58" data-name="Layer2 5 MEMBER 1 FILL">
        <path class="a6c0772d-daf8-4079-b1c5-65a2d1b46cf0"
              d="M170.91,196.41l0-.14.25-.07-.29.21m29.92,10.08,0,.06-.09,0,.11-.11m-4.14-31.12-.05-.09.07-.2,0,.29M190.84,174a.69.69,0,0,1,.29,0,.21.21,0,0,0-.15,0l-.14,0m1.14-.07-.07,0-.11-.11c.27-.06.41-.11.42-.16.09-.27.24-.19.45.22a6.69,6.69,0,0,1-.69.07m0,0-.09.05,0-.09.06,0,.07,0m-3.43,1.84a2.63,2.63,0,0,1,.25-.29,4.34,4.34,0,0,1,1.44-1l.38,0-.29,0a2.72,2.72,0,0,0,.34-.11l.17-.09.07,0a.19.19,0,0,0,.11-.11l.16,0-.14,0h-.22a.19.19,0,0,1,.16,0,.21.21,0,0,1,.15,0,.68.68,0,0,1,.29,0,.56.56,0,0,1,.29,0l.38,0-.11-.11a6.69,6.69,0,0,0,.69-.07,5.44,5.44,0,0,1,4,1.46l.05.09.09.4a3.42,3.42,0,0,1,1,.69c.83.91,1.28,2.5,1.33,4.74,0,0-.07.05-.07.2a18.19,18.19,0,0,1,.17,3.54,81.63,81.63,0,0,0,1,8.87q1.19,7.66,1.31,8.88a4.64,4.64,0,0,1,0,1.43,4.69,4.69,0,0,1-.7,2.37l-.11.11-.18.09.05.09a6.86,6.86,0,0,1-1,.71q-2.16,1.37-6.68,1.59a13.64,13.64,0,0,1-10.11-4.22,5.67,5.67,0,0,1,1.5-4.56l2.33-2.12a29.34,29.34,0,0,0,3.53-3.74,26.34,26.34,0,0,0,2.86-4.62,26.34,26.34,0,0,1-2.86,4.62,29.34,29.34,0,0,1-3.53,3.74l-2.33,2.12-.22.23c-.7.61-1.57,1.29-2.6,2a45.1,45.1,0,0,0-5.09,5.3l-.33.34q-1-7.75-4.88-12l-.25.07,3.34-2.24a45.39,45.39,0,0,0,4-3.58q7.65-8.38,8.49-10.92c.61-1.69,1-2.61,1.06-2.77s.34-.51.71-1m3.52-1.66-.07,0-.26.13a.85.85,0,0,0-.23,0,.24.24,0,0,1,.16.2l.07,0,0-.07,0-.16H192l.07,0-.12.12.09,0,0-.07.08,0,0-.07-.09,0,0-.07m-13.78,16.16v.22a45.39,45.39,0,0,1-4,3.58Z"/>
        <path class="a1fe459d-02f1-48ae-a415-ec7b2b268e33"
              d="M167.64,197.78l1.2-.5q4.74,4.53,5.44,13.44c-1.45,1.55-2.55,2.33-3.29,2.33a17.3,17.3,0,0,0-4.86-14.29Z"/>
        <path class="ab159099-22bb-43b3-bd3d-c2930447491f"
              d="M168.84,197.28l2.11-1,0,.14.29-.21q3.87,4.25,4.88,12l-1.8,2.52Q173.58,201.81,168.84,197.28Z"/>
        <path class="a71b3d8b-23cc-48db-87d8-23ba752b0428"
              d="M200.72,206.6c-.06.18-.1.24-.13.18l-.05-.09.18-.09m-3.94-30.83-.09-.4a3.79,3.79,0,0,1,.67.66,2.82,2.82,0,0,0-.58-.26M191.71,174a.56.56,0,0,0-.29,0,.68.68,0,0,0-.29,0c.27-.06.51-.1.72-.13l0,.09.09-.05.11.11-.38,0m0,.31,0,.07-.07,0a.24.24,0,0,0-.16-.2.85.85,0,0,1,.23,0l0,.07,0,.09m.35-.18-.08,0,0-.06.09,0,0,.07m-.11-.11.07,0,0,.07-.05-.09m-3.2,1.39-.09.05c.54-2.4,2.3-3.47,5.29-3.23s5.27,2.25,6.66,6.13a124.71,124.71,0,0,0,2.18,15.92q1.57,7.35,1,8.71l-.11,1a6.65,6.65,0,0,1-.8,1.3,11.64,11.64,0,0,1-3.33,2.24l0-.07a6.86,6.86,0,0,0,1-.71c0,.06.07,0,.13-.18l.09,0,.22-.22-.2.16a4.69,4.69,0,0,0,.7-2.37,4.64,4.64,0,0,0,0-1.43q-.12-1.22-1.31-8.88a81.63,81.63,0,0,1-1-8.87,18.19,18.19,0,0,0-.17-3.54q.51-.42.33-2.34a4.21,4.21,0,0,0-2-3,3.79,3.79,0,0,0-.67-.66l0-.29-.07.2a5.44,5.44,0,0,0-4-1.46c-.21-.41-.36-.49-.45-.22,0,.05-.15.1-.42.16l.11.11-.06,0c-.21,0-.45.07-.72.13a.69.69,0,0,0-.29,0l.14,0a.19.19,0,0,0-.16,0H191l.14,0-.16,0a.19.19,0,0,1-.11.11l-.07,0-.17.09a2.72,2.72,0,0,1-.34.11s-.07,0-.09,0A4.34,4.34,0,0,0,188.8,175.44Z"/>
    </g>
    <path id="b11c4951-8361-4a63-aa11-1445a79896b9" data-name="Layer2 5 MEMBER 1 1 STROKES"
          class="a33b8f18-9625-4aa2-9136-9c5b781790ac"
          d="M188.81,175.44a2.84,2.84,0,0,0-.24.29c-.37.52-.61.86-.71,1s-.46,1.08-1.06,2.76-3.39,5.34-8.5,10.93m-4,3.58L171,196.27l-2.11,1-1.2.49-1.52,1A17.34,17.34,0,0,1,171,213.05c.74,0,1.84-.78,3.29-2.33l1.79-2.52m5.42-5.64a44.45,44.45,0,0,0-5.08,5.3m7.68-7.34a31.81,31.81,0,0,1-2.6,2m2.82-2.26-.22.22m.22-.22a5.66,5.66,0,0,0-1.5,4.55,13.63,13.63,0,0,0,10.11,4.22q4.53-.21,6.68-1.58m0,.07a11.8,11.8,0,0,0,3.34-2.24,6.71,6.71,0,0,0,.79-1.3l.11-1q.6-1.36-1-8.71a126.76,126.76,0,0,1-2.17-15.93c-1.39-3.87-3.62-5.91-6.66-6.13s-4.75.84-5.29,3.23m10.46,9.46a19,19,0,0,0-.17-3.54m1.18,12.4a78.54,78.54,0,0,1-1-8.86m2.31,17.75q-.12-1.23-1.3-8.89m1.35,10.32a4.79,4.79,0,0,0-.05-1.43m-.65,3.79a4.76,4.76,0,0,0,.7-2.36m-.82,2.47.12-.11m-1.23,1a5.77,5.77,0,0,0,1-.72M197.37,176a3,3,0,0,0-.67-.66m0-.09a5.4,5.4,0,0,0-4-1.46m-.76.05-.07,0c-.21,0-.44.08-.71.14m-.16,0a.22.22,0,0,0-.15,0m-.49.35s-.08,0-.09.05a4.24,4.24,0,0,0-1.45,1m8.94,1a1,1,0,0,0-.38-.42m-.67-.66,0-.09m2.43,5.92c-.06-2.25-.5-3.83-1.34-4.75m-6.6-2.47a.23.23,0,0,0-.16,0m1.7-.18-.69.07-.07,0m1.12,15.95a26.11,26.11,0,0,1-2.85,4.62,30,30,0,0,1-3.53,3.74l-2.34,2.12m16.49,6.25,0-.07.2-.15m-.45.44c0,.06.08,0,.13-.18M171,196.27l0,.13m.29-.2q3.87,4.25,4.87,12M171,196.27l.25-.07m7.08-5.75a45.26,45.26,0,0,1-4,3.58"/>
    <path id="af5618c1-5f21-450f-bd05-19d155a748a2" data-name="Layer2 5 MEMBER 1 MEMBER 0 1 STROKES"
          class="a33b8f18-9625-4aa2-9136-9c5b781790ac" d="M187.91,196.66q6.3-1,8.85,2.23"/>
    <g id="afa2b548-725d-41c7-854d-3db6163b2480" data-name="Layer2 5 MEMBER 2 MEMBER 0 MEMBER 0 FILL">
        <path class="fc40097e-1e4a-4f98-85c1-197309b6448a"
              d="M138.5,176.44c.39,2.14-.33,4.56.62,6.27-.19.94.09,1.6-.48,2.4a4.3,4.3,0,0,1-2.75,1.76q-2,.57-5.56,1.2a5.12,5.12,0,0,1-5.36-2.33,6.58,6.58,0,0,1-1.13-5.7,8.34,8.34,0,0,1,3.67-4.87,9.64,9.64,0,0,1,4.51-1.83,23.28,23.28,0,0,1,3.17.35Q136.81,174.05,138.5,176.44Z"/>
    </g>
    <path id="b429eb9d-665e-4137-b0f2-572f293465ab" data-name="Layer2 5 MEMBER 2 MEMBER 0 MEMBER 0 1 STROKES"
          class="b5c4c8b3-50e8-487f-96a8-242d4c1cc859"
          d="M135.19,173.73a16.69,16.69,0,0,0-3.21-.35q-1.6,0-4.47,1.83a8.18,8.18,0,0,0-3.67,4.86,6.53,6.53,0,0,0,1.13,5.67,5.12,5.12,0,0,0,5.36,2.33q3.53-.63,5.56-1.2a4.3,4.3,0,0,0,2.75-1.76"/>
    <g id="f3dba6e0-6262-4e74-bbb4-0b62fdf07f90" data-name="Layer2 5 MEMBER 2 MEMBER 0 MEMBER 1 FILL">
        <path class="fc40097e-1e4a-4f98-85c1-197309b6448a"
              d="M133.29,187.08l-1.63,5.56a7.12,7.12,0,0,1-3.71,4.81,1.7,1.7,0,0,1-2.35-.65,2.64,2.64,0,0,1-.48-1.25c-.11-2,.73-4.72,2.52-8.06-.29-.45.36-1.05,1.94-1.81a2,2,0,0,1,1.85,0A4,4,0,0,1,133.29,187.08Z"/>
    </g>
    <path id="b0482cec-74f7-4dca-ba13-4d2318ec4fb7" data-name="Layer2 5 MEMBER 2 MEMBER 0 MEMBER 1 1 STROKES"
          class="b5c4c8b3-50e8-487f-96a8-242d4c1cc859"
          d="M133.35,187.1l-1.63,5.55a7.12,7.12,0,0,1-3.71,4.81,1.7,1.7,0,0,1-2.35-.65,2.64,2.64,0,0,1-.48-1.25c-.11-2,.73-4.72,2.52-8.06"/>
    <g id="a0d3d89b-720d-4f0f-864a-d436add779fc" data-name="Layer2 5 MEMBER 2 MEMBER 0 MEMBER 2 FILL">
        <path class="fc40097e-1e4a-4f98-85c1-197309b6448a"
              d="M127.56,187.22c-2.79,3-4.73,4.65-5.83,4.9a3.51,3.51,0,0,1-3-.5,2.4,2.4,0,0,1-.5-2.72,5.92,5.92,0,0,1,2.53-3,19.7,19.7,0,0,1,3.29-1.72l1.14-.37Z"/>
    </g>
    <path id="aaae4e58-8088-425b-a4a1-925008906909" data-name="Layer2 5 MEMBER 2 MEMBER 0 MEMBER 2 1 STROKES"
          class="b5c4c8b3-50e8-487f-96a8-242d4c1cc859"
          d="M127.62,187.23q-4.19,4.53-5.83,4.9a3.51,3.51,0,0,1-3.05-.5,2.4,2.4,0,0,1-.5-2.72,6,6,0,0,1,2.53-3,20.13,20.13,0,0,1,3.29-1.72"/>
    <g id="ae6bb5fb-aeba-4267-9817-720b2aadb1bc" data-name="Layer2 5 MEMBER 2 MEMBER 0 MEMBER 3 FILL">
        <path class="fc40097e-1e4a-4f98-85c1-197309b6448a"
              d="M124.74,179l.41-.5q-1.14,3.77-.52,4.88l-.15.38a9.55,9.55,0,0,1-4.35,1.32,3.28,3.28,0,0,1-2.47-1.08,1.9,1.9,0,0,1,.15-2.46,4.46,4.46,0,0,1,2.87-2A22,22,0,0,1,124.74,179Z"/>
    </g>
    <path id="f580bdc1-c5ee-4dfa-b4a4-b054655e1de7" data-name="Layer2 5 MEMBER 2 MEMBER 0 MEMBER 3 1 STROKES"
          class="b5c4c8b3-50e8-487f-96a8-242d4c1cc859"
          d="M124.55,183.76a9.36,9.36,0,0,1-4.36,1.32,3.3,3.3,0,0,1-2.47-1.08,1.9,1.9,0,0,1,.15-2.46,4.49,4.49,0,0,1,2.88-2,22,22,0,0,1,4-.55"/>
    <g id="b24820a3-22d0-41c3-9af3-5576f64ea969" data-name="Layer2 5 MEMBER 2 MEMBER 0 MEMBER 4 FILL">
        <path class="fc40097e-1e4a-4f98-85c1-197309b6448a"
              d="M134.92,189.57c-.13-2.41-.46-3.35-1-2.83q.3-1.62,5-3.21a29.05,29.05,0,0,1,.48,9.93c-.33,1.43-1.1,1.9-2.33,1.4Q135.11,193.18,134.92,189.57Z"/>
    </g>
    <path id="aeef9e65-f268-4a9b-a664-d4901ffb29b6" data-name="Layer2 5 MEMBER 2 MEMBER 0 MEMBER 4 1 STROKES"
          class="b5c4c8b3-50e8-487f-96a8-242d4c1cc859"
          d="M133.93,186.75c.53-.52.86.43,1,2.84s.83,4.17,2.12,5.28c1.23.51,2,0,2.33-1.4a29.07,29.07,0,0,0-.48-9.93,8.12,8.12,0,0,0-.57-6.26"/>
    <g id="bcb03d2d-1456-446e-a110-5368062106b6" data-name="Layer2 5 MEMBER 2 MEMBER 1 FILL">
        <path class="fc40097e-1e4a-4f98-85c1-197309b6448a"
              d="M138.71,179.26c-3.85-.56-5.71-2.32-5.56-5.28l4.93-6.77a60.88,60.88,0,0,1,8.31-10.29q6.92,1.62,8,9.59l-9.59,7A48.63,48.63,0,0,0,138.71,179.26Z"/>
    </g>
    <path id="ac94cb28-d5ea-480e-96fb-f6296a39e4e5" data-name="Layer2 5 MEMBER 2 MEMBER 1 1 STROKES"
          class="b5c4c8b3-50e8-487f-96a8-242d4c1cc859"
          d="M138.71,179.26a48.63,48.63,0,0,1,6.13-5.71l9.59-7q-1.12-8-8-9.59a60.88,60.88,0,0,0-8.31,10.29L133.15,174"/>
    <g id="e7a1ac26-60f9-4c44-9ead-3352525adc01" data-name="manga1 0 Layer0 0 FILL">
        <path class="a8fc163b-ebd0-4bf5-a04e-16627f9e9c6e"
              d="M150.43,151.3q9.44-7.45,13.57-4.39t.06,10.79q-4,7.76-8.76,10.58l-3.47-4.11q-3.78-4.51-7.34-4.93T150.43,151.3Z"/>
    </g>
    <path id="adcabe70-9d26-4393-9069-50120e97f188" data-name="manga1 0 Layer0 0 1 STROKES"
          class="e602e266-a5f2-412c-aa9c-133ce14b9614"
          d="M155.3,168.28l-3.47-4.11q-3.78-4.51-7.33-5t5.9-7.92q9.47-7.46,13.58-4.41t.08,10.82Q160,165.46,155.3,168.28Z"/>
    <g id="a2e267fc-0a2e-4e79-b09e-fa300654de35" data-name="Layer2 5 MEMBER 3 FILL">
        <path class="b86bd878-9092-4ab9-b204-dd56d1e19793"
              d="M162.74,133.81c0,.09-.09.21-.14.35l-7.12,1.2-.07.14-.14-.42,7.47-1.27m1.27,4.37a13.94,13.94,0,0,0,1.48.84,14.13,14.13,0,0,0,5.92,1.76,11.8,11.8,0,0,1-7.4-2.6m-.92-.85c.29.28.59.56.92.85a11.8,11.8,0,0,0,7.4,2.6h.28a15.39,15.39,0,0,1-8.1,5.71,29.09,29.09,0,0,0-11.14,7.82l.64-5.92,3.59-5,.28-.7a18.91,18.91,0,0,0-.21-1.91c-.14-.94-.3-1.8-.49-2.6,0-.24-.1-.48-.14-.71l-.07-.35c-.19-.62-.38-1.21-.57-1.76l7.12-1.2a4.94,4.94,0,0,0-.14,2.25,5.72,5.72,0,0,0,.35.64C162.86,137.05,163,137.14,163.09,137.33Z"/>
    </g>
    <path id="b0d98a22-e6a3-4e05-b90e-9eca49fe2d2d" data-name="Layer2 5 MEMBER 3 1 STROKES"
          class="a33b8f18-9625-4aa2-9136-9c5b781790ac"
          d="M164,138.18c-.33-.29-.63-.57-.92-.85m-.63-.92a5.72,5.72,0,0,0,.35.64m-.21-2.89a4.94,4.94,0,0,0-.14,2.25m-7.05-.91.07-.14.22.84c.1.26.2.56.31.92l.11.39c0,.21.09.43.14.67.19.8.35,1.66.49,2.6a11.26,11.26,0,0,1-.07,2.61l-3.59,5m18.32-7.61a11.8,11.8,0,0,1-7.4-2.6m-8.53-2.82,7.12-1.2"/>
    <g id="bba6ac77-dccf-40ed-aeb4-f425f6d34d62" data-name="Layer2 5 MEMBER 4 FILL">
        <path class="a8fc163b-ebd0-4bf5-a04e-16627f9e9c6e"
              d="M194.81,196.1a15.49,15.49,0,0,0,3.45,5.08l-12.4,4.51a14.5,14.5,0,0,1-3.67-6.2Q187.14,200.92,194.81,196.1Z"/>
        <path class="b86bd878-9092-4ab9-b204-dd56d1e19793"
              d="M177.61,183.49l13.25-2.11a34.32,34.32,0,0,0,3.95,14.72q-7.67,4.82-12.62,3.39Q180.15,192.86,177.61,183.49Z"/>
    </g>
    <path id="b9e68ae6-bf53-43a7-8571-d3bd48ac655d" data-name="Layer2 5 MEMBER 4 1 STROKES"
          class="ba95cfbf-7d43-431e-9887-0e8237a88db5"
          d="M182.19,199.49q-2-6.63-4.58-16l13.25-2.11a34.32,34.32,0,0,0,3.95,14.72Q187.15,200.92,182.19,199.49Zm0,0a14.5,14.5,0,0,0,3.67,6.2l12.4-4.51a15.49,15.49,0,0,1-3.45-5.08"/>
    <g id="ec1d8afc-1a5a-462f-9b67-a6cdedd930cb" data-name="Layer2 5 MEMBER 5 FILL">
        <path class="a6c0772d-daf8-4079-b1c5-65a2d1b46cf0"
              d="M197.77,208.65l.35-.21.07-.07,1.48-1c.15-.07.43.23.84.91q1.06,11.22,7.26,18.47a3.78,3.78,0,0,0,.43.7l.91.85-.56-.21c.39.3.57.41.56.35l.57.28a6.64,6.64,0,0,1,3.52,6c0,.14.05.29.07.42-1.41.47-2.77.94-4.09,1.41q-16.69,9.58-28.47,9.09-9.93-.34-5.42-.63-4.65-.13-6.35-1a2,2,0,0,1-.35-.14l-.21-.21a30.65,30.65,0,0,1,1.06-5.43,8.8,8.8,0,0,1,6.48-6.69c3.52-1.08,6.53-1.25,9-.49,2.4.61,3.83.8,4.3.56a9.53,9.53,0,0,1,5.78-.56q1.48,3.33-5.78-18.33a45.8,45.8,0,0,0,8.46-4.15c0-.13.16-.18.35-.14l-.28.21m2-1.34-.07.07-1.48,1,.14-.15c.09-.1.19-.19.28-.28l.14-.21c.19-.08.24-.08.14,0A2.29,2.29,0,0,1,199.74,207.31Z"/>
        <path class="ab159099-22bb-43b3-bd3d-c2930447491f"
              d="M197.77,208.65l.28-.21c-.19,0-.31,0-.35.14a45.8,45.8,0,0,1-8.46,4.15,11.29,11.29,0,0,1-3.38.71c-.43-1-.83-2.07-1.2-3.1a26.61,26.61,0,0,0,15.08-7,28.88,28.88,0,0,0,.85,3.17l-.22.14-.63.64a2.29,2.29,0,0,0-.85.42c.1-.08.05-.08-.14,0l-.07.07a.46.46,0,0,0-.07.14c-.09.09-.19.18-.28.28l-.14.15a.16.16,0,0,0-.07.07,1.71,1.71,0,0,0-.35.21m.35-.21h0a.16.16,0,0,1,.07-.07Z"/>
        <path class="a57c683a-d6ff-474e-bb31-5db3ed61972f"
              d="M213.2,235.92l-4,.63c1.32-.47,2.68-.94,4.09-1.41a4.51,4.51,0,0,0-.07.78m-27.34-22.48a11.29,11.29,0,0,0,3.38-.71q7.27,21.66,5.78,18.33a9.53,9.53,0,0,0-5.78.56,4.36,4.36,0,0,1,.63-.85c.24-.28.68-.84,1.34-1.69s.55-2.32-.21-4.3S188.52,219.06,185.86,213.44Z"/>
        <path class="a1fe459d-02f1-48ae-a415-ec7b2b268e33"
              d="M196.78,199.84c1.17-1.13,1.83-1.27,2-.42a35.19,35.19,0,0,1,1,3.94,26.61,26.61,0,0,1-15.08,7,43.08,43.08,0,0,0-2.19-4.86,20.08,20.08,0,0,0,8.88-2.19A22.23,22.23,0,0,0,196.78,199.84Z"/>
    </g>
    <path id="bb3bdecd-c0d4-4692-9e1b-d1281275c5d5" data-name="Layer2 5 MEMBER 5 1 STROKES"
          class="f95793a9-291f-42a8-836b-b727879b597d"
          d="M184.66,210.34a43.08,43.08,0,0,0-2.19-4.86,20.08,20.08,0,0,0,8.88-2.19,22.23,22.23,0,0,0,5.43-3.45c1.17-1.13,1.83-1.27,2-.42a35.19,35.19,0,0,1,1,3.94m-13.88,10.08c-.43-1-.83-2.07-1.2-3.1M191,224.82q-1.16-3-5.14-11.38m5.35,15.64c.62-.88.55-2.31-.21-4.26m-1.13,6c.24-.28.68-.84,1.34-1.69m-2,2.54a4.36,4.36,0,0,1,.63-.85m-4.93.29c2.4.61,3.83.8,4.3.56m-13.32-.07c3.52-1.08,6.53-1.25,9-.49m-15.5,7.18a8.8,8.8,0,0,1,6.48-6.69m-7.54,12.12a30.65,30.65,0,0,1,1.06-5.43m-.85,5.64-.21-.21m.21.35v-.14m.35.14c-.37.1-.49.1-.35,0m40.59-7.47,4-.63a7.31,7.31,0,0,1,.07,1.76m-15.19-29.24a2.82,2.82,0,0,0-.31.21m1.9-1.27-1.48,1m9.58,18.39q-6.21-7.26-7.26-18.43m8.6,20.12.53.28a6.63,6.63,0,0,1,3.56,6m-15.5-26.14a45.8,45.8,0,0,1-8.46,4.15,11.29,11.29,0,0,1-3.38.71m13.88-6.13-.07.07m.07-4a28.88,28.88,0,0,0,.85,3.17l-.22.18-.63.6m-1.55,1.06-.11.07m2.43-.11c-.06-.54-.1-1.08-.14-1.62m9.27,22c-.66-.63-1.28-1.29-1.87-2m5.5,8.38a4.51,4.51,0,0,0-.07.78m-24-4.3a9.44,9.44,0,0,1,5.78-.53"/>
    <path class="a57c683a-d6ff-474e-bb31-5db3ed61972f"
          d="M185,244.09s2.59-6.41,5.29-7.54,3.25-4.82,4.47-4.83-3.4-.67-6,.71a24.38,24.38,0,0,1-4.05-.71,8,8,0,0,0-2.74-.33s3.29,12.4,1.16,14.24S185,244.09,185,244.09Z"/>
    <g id="af9d74df-917c-4741-a9dc-714246ee1139" data-name="Layer2 5 MEMBER 5 MEMBER 0 FILL">
        <path class="a71b3d8b-23cc-48db-87d8-23ba752b0428"
              d="M179.66,249.24q-12.85-.44-11.42-5.43,19.59,4.94,44.4-9.23l.56,3.1Q192.5,249.76,179.66,249.24Z"/>
    </g>
    <path id="b75a5864-876e-4fbe-acfb-1b658feb478f" data-name="Layer2 5 MEMBER 5 MEMBER 0 1 STROKES"
          class="f95793a9-291f-42a8-836b-b727879b597d"
          d="M179.66,249.27q12.84.48,33.54-11.59l-.56-3.1q-24.81,14.16-44.4,9.23Q166.8,248.8,179.66,249.27Z"/>
    <g id="a9c934b9-f1df-40e0-b6b8-bf496bbcbc2d" data-name="Layer2 5 MEMBER 6 MEMBER 0 FILL">
        <path class="a1fe459d-02f1-48ae-a415-ec7b2b268e33"
              d="M186.28,166.86a3.78,3.78,0,0,1,2,.56l-5.85,5.22a3.23,3.23,0,0,0-1.9-1.27l-.14-.21a58,58,0,0,0,5.71-4.44l.21.14m2.25-2.47-.21.07,5.5-7.33L194,157l1.76,1.9-5.28,6.21a3.41,3.41,0,0,0-2-.71m-17.68,13.67a4.38,4.38,0,0,1-.43-1.76v-.21L173.1,175c1.93-.84,3.64-1.69,5.15-2.53l.91,1.9-8.38,3.8.07-.14m-3.1-1.12a2.54,2.54,0,0,0,.35,1.69,20.09,20.09,0,0,1-10.57,1.76,2.6,2.6,0,0,1,.14-1.69v-.07l2-.21a58.42,58.42,0,0,0,8.11-1.48m-21.85,2.18c-.14-.09.07-.12.63-.07a56.65,56.65,0,0,1,7.19,0v.14a3.43,3.43,0,0,0,0,1.69l-7.82.85-.35-2.19.63-.21,1.2-.07Z"/>
    </g>
    <g id="a5b08878-0772-42e5-9ee4-cd97666f7af2" data-name="Layer2 5 MEMBER 6 MEMBER 0 MEMBER 0 FILL">
        <path class="a4d1eb32-ead7-480a-b24c-b6f6db66c06f"
              d="M159.19,182.68a3.55,3.55,0,0,1-1.45-2.46,25.23,25.23,0,0,0,10.42-1.78,4.1,4.1,0,0,0,1.84,2.24,107.41,107.41,0,0,1-10.81,2m-3,.2a55.8,55.8,0,0,1-7.77-.14l-1,.11-.4-.22-.23-1.24,7.78-.94a3.49,3.49,0,0,0,1.6,2.43m34.57-17.7-.12-.26,5.29-6.28,1.38,1.68-.1.23c-1.66,1.88-3.43,4-5.33,6.43a8.46,8.46,0,0,0-1.12-1.8m-8.2,7.24,5.91-5.24a3.88,3.88,0,0,1,1.1,2.45,46.93,46.93,0,0,1-6.28,5.17,5.87,5.87,0,0,0-.55-2.19l-.18-.19M170.87,178l8.39-3.84a8.79,8.79,0,0,0,1.88,2,53.47,53.47,0,0,1-8.42,3.7A4.63,4.63,0,0,1,170.87,178Z"/>
    </g>
    <g id="b47001db-ba12-448e-9e83-4d79a679c8e8" data-name="Layer2 5 MEMBER 6 MEMBER 0 MEMBER 1 FILL">
        <path class="f1712d2e-9030-4294-ad9d-fa33c6e28980"
              d="M182.26,172.64l.14.28a3.82,3.82,0,0,1,.5,2c-.28.24-1,.73-2.05,1.48a6.16,6.16,0,0,1-1.83-2l-1-1.83,2.12-1.34.28.07a4.53,4.53,0,0,1,1.83,1.34m14.45-11.7a1,1,0,0,0,.14-.21l.49.49a8.61,8.61,0,0,0,.78.92l-1.41-1.2m-8.39,3.52a2.2,2.2,0,0,1,1.91.71,9.79,9.79,0,0,1,1.26,2l-2.39,2.61a3.63,3.63,0,0,0-.92-2.26,3.55,3.55,0,0,0-2.18-.63l-.14-.14,2.18-2.26h.28m-41.5,37.63a125.7,125.7,0,0,0-2.19-14.87q13.45-1.33,22.06,0,32.13-3,37.77-16.84,2.82,4,4.93,7.47l3,5.43-.35.42Q186.5,197.37,171.41,198t-24.59,4.08m10.5-21.7a4,4,0,0,0,1.55,2.46l-3,.22a3.21,3.21,0,0,1-1.62-2.4,2.14,2.14,0,0,1,.07-1.62l.07-.28,3-.07v.07a5.94,5.94,0,0,0-.07,1.62m15-.35a11.34,11.34,0,0,1-2.68.84,4.09,4.09,0,0,1-1.9-2.32,3.44,3.44,0,0,1-.29-1.7l.71-.07a7.26,7.26,0,0,1,2-.49,3.75,3.75,0,0,0,.35,1.76v.14a3.87,3.87,0,0,0,1.77,1.84m-27.13,3a.29.29,0,0,0-.08-.22c-.14-.47-.3-.49-.49-.07v-1.05c.19.37.38.73.57,1.05a.44.44,0,0,1,.14.29h-.14m19.87-43.55q.28-.21,3.45.21,10.86,3.3,22.27,14.8l2.47,3.17L188,164.46l-2.11-1.83,2.11,1.83-2.18,2.26-2.19-1.84,2.19,1.84a63.91,63.91,0,0,1-5.71,4.51L179,169.4l1.2,1.83L178,172.57l-1.4-1.7,1.4,1.7A52.38,52.38,0,0,1,173,175l-2.75,1.06-1.27-2.33,1.27,2.33v.21a7.26,7.26,0,0,0-2,.49l-.71.07-.84-2.11.84,2.11a57.56,57.56,0,0,1-8,1.56l-2,.28-.64-2,.64,2-3,.07-.71-1.91.71,1.91h-6.63l-2.39-.07-.43-.07-.14,2.11.21-5.5q.15-13.32,3.1-20.78l1.41-3c1.51-2.24,2.69-3.27,3.53-3.11-1.46,3.28-2,5.74-1.69,7.4,2.39-1,4.79-1.95,7.18-2.89q1.45-.61,3.88-10.85A27.5,27.5,0,0,1,165.07,139.45Z"/>
        <path class="a8fc163b-ebd0-4bf5-a04e-16627f9e9c6e"
              d="M158.51,152.9c-2.39.94-4.79,1.91-7.18,2.89-.33-1.66.23-4.12,1.69-7.4q2.41,4.5,9.37-6.34Q160,152.28,158.51,152.9Z"/>
        <path class="f6336248-acec-4c0e-9f86-cfb888a4e729"
              d="M144.56,183c.38,0,.66.07.85.07q5.15,0,7.54.07c1.5,0,2.46-.07,2.89-.07l.35,1.62-.35-1.62,3-.22.77,2.19-.77-2.19a84.23,84.23,0,0,0,10.78-2l.49,1.2-.49-1.2a11.34,11.34,0,0,0,2.68-.84l.91.63-.91-.63a53.28,53.28,0,0,0,8.52-3.67l1,1.41-1-1.41c1.08-.75,1.77-1.24,2.05-1.48l.84,1.34-.84-1.34a41.08,41.08,0,0,0,6.2-5.14l1.69,1.34-1.69-1.34,2.39-2.61,1.55,1.62-1.55-1.62c1.79-2.26,3.53-4.32,5.22-6.2l1.41,1.2q3.52,4.37,6.34,8.24-5.64,13.89-37.77,16.84-8.59-1.33-22.06,0a14.11,14.11,0,0,1-.07-4.22m.78,0,.07.07c-.19,0-.47,0-.85-.07l.07-.07v-.22c.19-.42.35-.4.49.07a.29.29,0,0,1,.08.22Z"/>
        <path class="a4d1eb32-ead7-480a-b24c-b6f6db66c06f"
              d="M144.63,181.66a.55.55,0,0,0-.07-.28l.21-.64,9-.28a16,16,0,0,0,.85,2.61c-.19,0-.75,0-1.69.07q-2.4-.07-7.54-.07l-.07-.07a.44.44,0,0,0-.14-.29c-.19-.32-.38-.68-.57-1.05m-.07-1,.21.07-.21.64a2.51,2.51,0,0,0-.07-.64C144.49,180.69,144.51,180.67,144.56,180.67Z"/>
        <path class="a1fe459d-02f1-48ae-a415-ec7b2b268e33"
              d="M144.77,180.74l-.21-.07c-.05,0-.07,0-.07.07h-.14l.07-.14a4.25,4.25,0,0,1,.35-1.76v1.9m.57-2,2.39.07h6.63l-.07.28a2.14,2.14,0,0,0-.07,1.62,3.21,3.21,0,0,0,1.62,2.4c-.43,0-1.39,0-2.89.07.94,0,1.5-.07,1.69-.07a16,16,0,0,1-.85-2.61l-9,.28.14-2.11Z"/>
    </g>
    <path id="a4e60b14-3394-4e9b-8b40-04c2d597169c" data-name="Layer2 5 MEMBER 6 MEMBER 0 MEMBER 1 1 STROKES"
          class="ba95cfbf-7d43-431e-9887-0e8237a88db5"
          d="M162.39,142.05a35.86,35.86,0,0,1,2.64-2.6,11.17,11.17,0,0,1,3.49.21q10.86,3.3,22.27,14.8m2.47,3.17L188,164.46l-2.11-1.83m-31.57,16.14h-6.63l-2.39-.07m-.57,2,.21-5.5q.15-13.32,3.1-20.78l1.41-3c1.51-2.24,2.69-3.27,3.53-3.11q2.41,4.5,9.37-6.34m-17.83,39.33.21-.64m.64,2.33q5.15,0,7.54.07m-8.32-.43v-1.05m-.07,1.34c.38,0,.66.07.85.07m-.85-.07.07-.07m27.7-2.89.91.63m-.91-.63a11.34,11.34,0,0,1-2.68.84,4.09,4.09,0,0,1-1.9-2.32,3.44,3.44,0,0,1-.29-1.7l.71-.07a7.26,7.26,0,0,1,2-.49,3.75,3.75,0,0,0,.35,1.76v.14A3.87,3.87,0,0,0,172.33,180Zm0,0a53.28,53.28,0,0,0,8.52-3.67l1,1.41m-11.63-1.48v-.21L173,175a52.38,52.38,0,0,0,5.07-2.46l1,1.83a6.16,6.16,0,0,0,1.83,2c1.08-.75,1.77-1.24,2.05-1.48l.84,1.34m-14.09,4.65.49,1.2m-3.52-7.33.84,2.11a57.56,57.56,0,0,1-8,1.56l-2,.28-.64-2m13.46-.56-1.27-2.33m-10.07,9.09a4,4,0,0,1-1.55-2.46,5.94,5.94,0,0,1,.07-1.62v-.07l-3,.07-.71-1.91m2.19,6.21,3-.22.77,2.19m-3.8-2a3.21,3.21,0,0,1-1.62-2.4,2.14,2.14,0,0,1,.07-1.62l.07-.28M153,183.14c1.5,0,2.46-.07,2.89-.07l.35,1.62m13.46-3.81a84.23,84.23,0,0,1-10.78,2m53.2.85Q186.5,197.37,171.41,198t-24.59,4.08a125.7,125.7,0,0,0-2.19-14.87m59.83-16.84q2.82,4,4.93,7.47l3,5.43m-67.79,3.94a14.11,14.11,0,0,1-.07-4.22M188,164.46h.28a2.2,2.2,0,0,1,1.91.71,9.79,9.79,0,0,1,1.26,2l-2.39,2.61a3.63,3.63,0,0,0-.92-2.26,3.55,3.55,0,0,0-2.18-.63l-.14-.14Zm8.81-3.73a9.44,9.44,0,0,0-3.59-3l.28-.57,3.38,3.46S196.85,160.68,196.85,160.73Zm0,0a1,1,0,0,1-.14.21c-1.69,1.88-3.43,3.94-5.22,6.2l1.55,1.62m3.88-8.1.42.56-.49-.49m.49.49a8.61,8.61,0,0,0,.78.92m-7.33-7.68,2.75,2.74-.28.43M182.9,174.89a3.82,3.82,0,0,0-.5-2l-.14-.28a4.53,4.53,0,0,0-1.83-1.34l-.28-.07a63.91,63.91,0,0,0,5.71-4.51l-2.19-1.84m-3.52,6.35L179,169.4m-.92,3.17,2.12-1.34m10.64-.14-1.69-1.34a41.08,41.08,0,0,1-6.2,5.14m15.22-12.75q3.52,4.37,6.34,8.24M178,172.57l-1.4-1.7"/>
    <path id="ff8299a1-5326-490a-9341-7259fbc33e00" data-name="Layer2 5 MEMBER 6 MEMBER 0 MEMBER 1 2 STROKES"
          class="b5c4c8b3-50e8-487f-96a8-242d4c1cc859"
          d="M153,148.39c-1.46,3.28-2,5.74-1.69,7.4,2.39-1,4.79-1.95,7.18-2.89q1.45-.61,3.88-10.85"/>
    <g id="b48192b0-d6f6-40eb-9067-387283a7750d" data-name="Layer2 5 MEMBER 6 MEMBER 1 FILL">
        <path class="a1fe459d-02f1-48ae-a415-ec7b2b268e33"
              d="M149.78,161.22a1.22,1.22,0,0,1-.36-.92,1.47,1.47,0,0,1,.36-1,.9.9,0,0,1,.77-.35,1.15,1.15,0,0,1,.85.35,1.79,1.79,0,0,1,.28,1,1.46,1.46,0,0,1-.28.92,1.08,1.08,0,0,1-.85.42A.87.87,0,0,1,149.78,161.22Z"/>
    </g>
    <path id="a75fdada-3730-43d8-8933-4ce6b55dd4cd" data-name="Layer2 5 MEMBER 6 MEMBER 1 1 STROKES"
          class="bfbb9318-f744-4956-85bd-4a298c5c0b94"
          d="M149.42,160.3a1.22,1.22,0,0,0,.36.92.87.87,0,0,0,.77.42,1.08,1.08,0,0,0,.85-.42,1.46,1.46,0,0,0,.28-.92,1.79,1.79,0,0,0-.28-1,1.15,1.15,0,0,0-.85-.35.9.9,0,0,0-.77.35A1.47,1.47,0,0,0,149.42,160.3Z"/>
    <g id="b70e09a8-31d4-4ab6-8c41-210d825801da" data-name="Layer2 5 MEMBER 6 MEMBER 2 FILL">
        <path class="a1fe459d-02f1-48ae-a415-ec7b2b268e33"
              d="M158.16,159.32a1.27,1.27,0,0,1-.35-.92,1.51,1.51,0,0,1,.35-1,.94.94,0,0,1,.78-.36,1.12,1.12,0,0,1,.84.36,1.71,1.71,0,0,1,.28,1,1.42,1.42,0,0,1-.28.92,1.05,1.05,0,0,1-.84.42A.89.89,0,0,1,158.16,159.32Z"/>
    </g>
    <path id="a017a941-4fdf-42fb-b698-7b50418d7676" data-name="Layer2 5 MEMBER 6 MEMBER 2 1 STROKES"
          class="bfbb9318-f744-4956-85bd-4a298c5c0b94"
          d="M157.81,158.4a1.27,1.27,0,0,0,.35.92.89.89,0,0,0,.78.42,1.05,1.05,0,0,0,.84-.42,1.42,1.42,0,0,0,.28-.92,1.71,1.71,0,0,0-.28-1,1.12,1.12,0,0,0-.84-.36.94.94,0,0,0-.78.36A1.51,1.51,0,0,0,157.81,158.4Z"/>
    <g id="a7ca2301-a9b2-4724-9cf3-5fa3b3a42e4f" data-name="Layer2 5 MEMBER 6 MEMBER 3 FILL">
        <path class="a1fe459d-02f1-48ae-a415-ec7b2b268e33"
              d="M150.5,163.62a13.48,13.48,0,0,0,12.11-2.46,18.64,18.64,0,0,1-1,5.06l-8.36,1.86A6.11,6.11,0,0,1,150.5,163.62Z"/>
    </g>
    <path id="a3381cf9-d47d-4aa2-9dec-e1bf79c63850" data-name="Layer2 5 MEMBER 6 MEMBER 3 1 STROKES"
          class="bfbb9318-f744-4956-85bd-4a298c5c0b94"
          d="M162.68,161.19a13.49,13.49,0,0,1-12.1,2.45,6,6,0,0,0,2.77,4.46l8.36-1.86A18.26,18.26,0,0,0,162.68,161.19Z"/>
    <g id="baa56d1e-02f6-4d8d-b343-db3d6cfd3be5" data-name="Layer2 5 MEMBER 8 MEMBER 0 FILL">
        <path class="fc40097e-1e4a-4f98-85c1-197309b6448a"
              d="M155.07,171.4a94.59,94.59,0,0,1-4.33,12.52q5.1.24,7.81,2l5.09-11.28a54.41,54.41,0,0,0,5.7-11.92q-4.41-5.55-12.07-3.14Z"/>
    </g>
    <path id="ea851c7f-5ebc-4308-a451-c27777b14295" data-name="Layer2 5 MEMBER 8 MEMBER 0 1 STROKES"
          class="b5c4c8b3-50e8-487f-96a8-242d4c1cc859"
          d="M150.71,184A91.83,91.83,0,0,0,155,171.44l2.21-11.77q7.65-2.41,12.07,3.14a54,54,0,0,1-5.71,11.92L158.52,186"/>
    <g id="a3236d4c-5e01-4ad5-a068-762302c8dd34" data-name="Layer2 5 MEMBER 7 FILL">
        <path class="a32587c5-15bd-4bae-80b8-8de9e57144ba"
              d="M165.84,200.92c2.26,3.2,11.51,17.71-3.24,3.66Q153,196.12,145,195.42t-11.35-2.75q-3.37-2-13.46-6.62t-2.89-5.36c4.75-.52,7.94-.82,9.59-.92h.28a.31.31,0,0,0,.14-.07h1.48q2,0,4.23,2.61a16.72,16.72,0,0,0,10.85,4.09q6.35-1.12,13.11,4.79c1,.85,1.92,1.74,2.82,2.68.33.37.66.75,1,1.13A61,61,0,0,1,165.84,200.92Z"/>
        <path class="b3a3ed80-0762-4982-8f85-a42602b57155"
              d="M160.76,195c.47.42,1,.86,1.48,1.33a19,19,0,0,1,3.6,4.59,61,61,0,0,0-5.08-5.92m-3.8-3.81q-6.77-5.92-13.11-4.79Q151,184.63,157,191.19Z"/>
        <path class="ee072043-df37-41b5-bf93-97fc94012202"
              d="M170.07,208.74q-2.12-4.31-4.23-7.82,9.09,12,15.36,29.8,8.38,23.4-13,17.2a19.17,19.17,0,0,0-12.82.56,34.35,34.35,0,0,1-11.14,2.61,14,14,0,0,1-1.48.07q-6.76.21-35.37.28-6.76,0-12.26-.35-17.76-1.2-22.55-6.13-6.21-6.63,3.31-26.5t20.93-29.6q11.2-9.65,30.09-9.09c-1.65.1-4.84.4-9.59.92s-3.78,2.26,2.89,5.36,11.21,5.26,13.46,6.62,6,2.23,11.35,2.75,11.23,3.52,17.62,9.16S171.48,211.51,170.07,208.74Z"/>
    </g>
    <path id="e37dc7d9-2c21-4632-aa81-806ee7ec4ca6" data-name="Layer2 5 MEMBER 7 1 STROKES"
          class="f95793a9-291f-42a8-836b-b727879b597d"
          d="M181,230.7q-6.27-17.74-15.36-29.8m2.33,47q21.42,6.19,13-17.2m-25.86,17.76A19.19,19.19,0,0,1,168,247.9m-24,3.17a34.35,34.35,0,0,0,11.13-2.61m-12.61,2.68a14.12,14.12,0,0,0,1.48-.07m-36.86.35q28.62-.06,35.38-.28m-47.64-.07q5.49.36,12.26.35m-34.81-6.48q4.78,4.94,22.55,6.13M75.64,218.44q-9.51,19.88-3.31,26.5m24.24-56.1q-11.34,9.66-20.93,29.6m51-38.69q-18.89-.56-30.09,9.09m30.37-9.09h-.28m.42,0-.14,0m1.62-.07c-.65,0-1.15,0-1.48,0m5.71,2.57q-2.17-2.61-4.23-2.61m15.09,6.7a16.75,16.75,0,0,1-10.86-4.09m24,8.88q-6.76-5.92-13.1-4.79m15.92,7.47a37.64,37.64,0,0,0-2.82-2.68m3.81,3.81-1-1.13m6.06,7.05a62.3,62.3,0,0,0-5.07-5.92"/>
    <path class="a8fc163b-ebd0-4bf5-a04e-16627f9e9c6e"
          d="M172.76,156.77q2.66-11.73-1.9-14.14t-9.76,4.61q-5.26,7-5.76,12.46l5.2,1.35c3.81,1,6.35,2.48,7.62,4.5S171,164.62,172.76,156.77Z"/>
    <path class="e602e266-a5f2-412c-aa9c-133ce14b9614"
          d="M155.34,159.7l5.2,1.35q5.72,1.48,7.64,4.48t4.6-8.74q2.64-11.76-1.88-14.15t-9.8,4.6Q155.84,154.2,155.34,159.7Z"/>
    <g id="a5e9aec1-2ee2-48b9-9d0f-c879d83f25d5" data-name="Layer2 5 MEMBER 8 MEMBER 2 MEMBER 0 FILL">
        <path class="fc40097e-1e4a-4f98-85c1-197309b6448a"
              d="M148.72,182.15a8.34,8.34,0,0,1,5.28-3.24,7.38,7.38,0,0,1,5.5,1.2,7.06,7.06,0,0,1,1.34,1.48,10.9,10.9,0,0,1,1.62,4.72,8.25,8.25,0,0,1-1.06,5.85,6.63,6.63,0,0,1-4.72,3,7.87,7.87,0,0,1-6.06-1.34,8.76,8.76,0,0,1-3-9.3A11.63,11.63,0,0,1,148.72,182.15Z"/>
    </g>
    <path id="e2c7b33c-1033-452f-a4d4-addba997490c" data-name="Layer2 5 MEMBER 8 MEMBER 2 MEMBER 0 1 STROKES"
          class="b5c4c8b3-50e8-487f-96a8-242d4c1cc859"
          d="M159.5,180.11a7.06,7.06,0,0,1,1.34,1.48,10.75,10.75,0,0,1,1.59,4.75,8.09,8.09,0,0,1-1.06,5.85,6.56,6.56,0,0,1-4.69,2.93,7.87,7.87,0,0,1-6.06-1.34,8.76,8.76,0,0,1-3-9.3"/>
    <g id="b312b628-035f-4c5b-b55c-eb3514b71387" data-name="Layer2 5 MEMBER 8 MEMBER 2 MEMBER 1 FILL">
        <path class="fc40097e-1e4a-4f98-85c1-197309b6448a"
              d="M153.44,191.73c.56,1.7.56,2.59,0,2.68q-1.69,5.35-4.09,7.4a2.33,2.33,0,0,1-1.19.49A1.68,1.68,0,0,1,146,201a7.08,7.08,0,0,1,.92-6l3.24-5.78a6.23,6.23,0,0,0,1.9,1.13A2.09,2.09,0,0,1,153.44,191.73Z"/>
    </g>
    <path id="ad059711-7a23-415f-b0e6-0ac02ed78e35" data-name="Layer2 5 MEMBER 8 MEMBER 2 MEMBER 1 1 STROKES"
          class="b5c4c8b3-50e8-487f-96a8-242d4c1cc859"
          d="M150.2,189.27,147,195.05a7.08,7.08,0,0,0-.92,6,1.68,1.68,0,0,0,2.12,1.26,2.33,2.33,0,0,0,1.19-.49q2.4-2,4.09-7.4"/>
    <g id="a5052c68-8d65-47f5-954a-f59f66bb3a37" data-name="Layer2 5 MEMBER 8 MEMBER 2 MEMBER 2 FILL">
        <path class="fc40097e-1e4a-4f98-85c1-197309b6448a"
              d="M153.72,194.27c-.25,4.09-.09,6.63.49,7.6a3.53,3.53,0,0,0,2.47,1.86,2.41,2.41,0,0,0,2.31-1.52,6,6,0,0,0,.39-3.88,19.6,19.6,0,0,0-1-3.57l-.52-1.08Z"/>
    </g>
    <path id="a6b4b594-f202-49d4-8c37-86d47b9d1446" data-name="Layer2 5 MEMBER 8 MEMBER 2 MEMBER 2 1 STROKES"
          class="b5c4c8b3-50e8-487f-96a8-242d4c1cc859"
          d="M153.7,194.27q-.37,6.14.49,7.6a3.54,3.54,0,0,0,2.47,1.85A2.4,2.4,0,0,0,159,202.2a6,6,0,0,0,.39-3.87,19.16,19.16,0,0,0-1-3.57"/>
    <g id="ee2943b6-8e53-43f3-ae47-ccf224295ab6" data-name="Layer2 5 MEMBER 8 MEMBER 2 MEMBER 3 FILL">
        <path class="fc40097e-1e4a-4f98-85c1-197309b6448a"
              d="M161.4,191.52l.36-.28a18.59,18.59,0,0,1,2.46,3.1,5,5,0,0,1,.57,3.45,2,2,0,0,1-1.62,1.84,2.8,2.8,0,0,1-2.47-1,8.63,8.63,0,0,1-2.12-4.09l-.07-2.32Z"/>
    </g>
    <path id="b65c5807-0079-4e51-b60a-8233b6f39efc" data-name="Layer2 5 MEMBER 8 MEMBER 2 MEMBER 3 1 STROKES"
          class="b5c4c8b3-50e8-487f-96a8-242d4c1cc859"
          d="M158.58,194.55a8.63,8.63,0,0,0,2.12,4.09,2.8,2.8,0,0,0,2.47,1,2,2,0,0,0,1.62-1.84,5,5,0,0,0-.57-3.45,18.59,18.59,0,0,0-2.46-3.1"/>
    <g id="a6e95569-a6fa-4c9d-9b4a-6c1183875892" data-name="Layer2 5 MEMBER 8 MEMBER 2 MEMBER 4 FILL">
        <path class="fc40097e-1e4a-4f98-85c1-197309b6448a"
              d="M150.13,189.13a29.74,29.74,0,0,0-3,1.69,6.6,6.6,0,0,1-4.93,1c-1.44-.55-1.73-1.47-.85-2.74a33.21,33.21,0,0,1,6.84-6.42Z"/>
    </g>
    <path id="bf0486c2-05ac-4bd7-924f-07c401149642" data-name="Layer2 5 MEMBER 8 MEMBER 2 MEMBER 4 1 STROKES"
          class="b5c4c8b3-50e8-487f-96a8-242d4c1cc859"
          d="M150.13,189.13a29.74,29.74,0,0,0-3,1.69,6.6,6.6,0,0,1-4.93,1c-1.44-.55-1.73-1.47-.85-2.74a33.21,33.21,0,0,1,6.84-6.42c.79-1.73,2.42-3,4.86-3.73"/>
    <g id="ec98c442-79fd-452f-9b49-3588d23d0821" data-name="Layer2 5 MEMBER 9 FILL">
        <path class="b0e04268-f8b4-44ca-a7e6-d1d5ea616918"
              d="M111.69,83.27l-.24-.07,0-.08a.91.91,0,0,0,.27.15m-3.13-5.16c0,1.82.91,3.49,2.86,5l0,.08a15.59,15.59,0,0,0-3.68-1.45c-1.26-1-1-2.17.79-3.64M61,102q-1.76-6-14-10.14Q56.42,83,96.16,85.07q16.25-.1-7.28-5.29,11.27-.82,18.89,2a15.59,15.59,0,0,1,3.68,1.45,53,53,0,0,0-9.88,18.22q-16.89,4.1-26.18,16.14Q64.94,113.66,61,102Z"/>
        <path class="b7e1a0e4-dc00-4202-bb76-3043a8ee7bb5"
              d="M77.08,118.17c-.56-.18-1.12-.39-1.69-.61q9.28-12,26.18-16.14a53,53,0,0,1,9.88-18.22l.24.07,0,.07a8.91,8.91,0,0,0,1.41.72,21.92,21.92,0,0,1,5.19,4.17,21,21,0,0,1,4.32,6.69q4,8-11.84,19.75A110.43,110.43,0,0,1,100,118.19Q86.61,121.25,77.08,118.17Z"/>
    </g>
    <path id="e78964d5-51a5-4a44-81a8-8298656feb0c" data-name="Layer2 5 MEMBER 9 1 STROKES"
          class="ec040717-9375-43a8-b035-89df652f83c8"
          d="M111.72,83.33l-.28-.19q-2.93-2.3-2.87-5c-1.78,1.46-2,2.68-.78,3.64q-7.64-2.79-18.89-2,23.53,5.2,7.28,5.29Q56.43,83,47.06,91.88,59.29,96,61,102,65,113.68,75.4,117.57c.58.23,1.14.43,1.7.61q9.53,3.09,22.91,0,5.07-1.36,10.81-3.52Q126.63,103,122.66,94.93a21.54,21.54,0,0,0-4.32-6.69,22.86,22.86,0,0,0-5.19-4.17,9.9,9.9,0,0,1-1.42-.71Zm0,0a1.1,1.1,0,0,0-.25-.12l0-.07m0,.07a16,16,0,0,0-3.68-1.44"/>
    <g id="ea48e287-0eed-4daa-bd47-fb4896fb343c"
       data-name="Layer2 5 MEMBER 10 MEMBER 0 MEMBER 0 MEMBER 0 MEMBER 0 FILL">
        <path class="fc40097e-1e4a-4f98-85c1-197309b6448a"
              d="M79.16,111.2a8.72,8.72,0,0,1,2.76-5.89,9,9,0,0,1,7.38-2.37l3.26.62.23.09a.38.38,0,0,0,.38,0l.22-.21q9.83,6.68,8.3,13l-.48,0a.51.51,0,0,0-.27.39,9,9,0,0,1-2.1,3.09A9.37,9.37,0,0,1,91.42,123,11.38,11.38,0,0,1,83,119.86a10.16,10.16,0,0,1-3.78-7.44l-.09-1.22m6.72,4.49,0,0a5.32,5.32,0,0,1-1.66-4.14c0-1.43,1-2.37,2.78-2.83l2.65-.68a6.61,6.61,0,0,0-.19,1.82A6.39,6.39,0,0,0,91.34,114a3.06,3.06,0,0,0,1.47.89.33.33,0,0,0,.47,0c.09.06.18,0,.26-.18a.64.64,0,0,0,0-.48.62.62,0,0,0-.43-.22l-1-.88A4.56,4.56,0,0,1,90.46,110a4.33,4.33,0,0,1,.38-2.2A4.71,4.71,0,0,0,92.4,107a.41.41,0,0,0,.16-.33c.1-.22.1-.39,0-.51a.48.48,0,0,0-.37-.19c-.24-.07-.38-.07-.43,0a2.91,2.91,0,0,1-1.45.72l0,.14c-.07-.1-.12-.11-.13,0l-3.48.82q-3.54.93-3.58,3.87a5.64,5.64,0,0,0,2.21,5,7.32,7.32,0,0,0,2.56,1.72.57.57,0,0,0,.45-.12.71.71,0,0,0,.33-.27,1.92,1.92,0,0,0,0-.47l-.39-.27A5.75,5.75,0,0,1,85.88,115.69Z"/>
    </g>
    <g id="b5a7c1d0-d03f-4c28-8f83-1f92c4e83fb3"
       data-name="Layer2 5 MEMBER 10 MEMBER 0 MEMBER 0 MEMBER 0 MEMBER 1 FILL">
        <path class="b338a555-4523-462b-b505-96c3f3528c04"
              d="M89.89,105.8c0-.1.06-.11.12,0v-.08A3.17,3.17,0,0,0,91.5,105c0-.13.18-.14.4,0a.44.44,0,0,1,.37.21.36.36,0,0,1,0,.43.45.45,0,0,1-.13.38,5.44,5.44,0,0,1-1.56.79,4.39,4.39,0,0,0-.36,2.16,4.81,4.81,0,0,0,1.61,3.18l1.11.89a.44.44,0,0,1,.37.21.5.5,0,0,1,0,.43c-.08.2-.17.27-.26.2q-.27.21-.45.06a3.16,3.16,0,0,1-1.5-.94,6.13,6.13,0,0,1-1.88-4.08,4.86,4.86,0,0,1,.15-1.8l-2.65.65c-1.83.47-2.75,1.42-2.78,2.84a5.51,5.51,0,0,0,1.72,4.14l0,0A5.4,5.4,0,0,0,88,116.07l.33.24a.79.79,0,0,1,0,.48.67.67,0,0,1-.3.24.7.7,0,0,1-.42.18A6.84,6.84,0,0,1,85,115.49a5.85,5.85,0,0,1-2.24-5c0-2,1.24-3.29,3.59-3.89l3.5-.81M89,100.86a4.94,4.94,0,0,1,1.82.28v-.08a9.35,9.35,0,0,1,2,.53c.11,0,.21.07.31.32a.42.42,0,0,1,0,.32l0,.11-.2.29a.51.51,0,0,1-.39,0l-.19-.06L89,101.93a8.81,8.81,0,0,0-7.35,2.37,8.64,8.64,0,0,0-2.73,5.9v1.18a10.25,10.25,0,0,0,3.86,7.46,11.29,11.29,0,0,0,8.34,3.09,9.32,9.32,0,0,0,7.44-3.15,8,8,0,0,0,2.1-3.09.49.49,0,0,1,.29-.36l.43,0,.16.3.15.37a12.15,12.15,0,0,1-2.21,3.59,11.31,11.31,0,0,1-8.24,3.56,13.25,13.25,0,0,1-9.11-3.55,10.75,10.75,0,0,1-4.32-8.22,9,9,0,0,1,3-8A9.54,9.54,0,0,1,89,100.86Z"/>
    </g>
    <g id="fc10f94d-856d-4879-bc46-07d83b166e21"
       data-name="Layer2 5 MEMBER 10 MEMBER 1 MEMBER 0 MEMBER 0 MEMBER 0 FILL">
        <path class="e4941364-bea1-4c30-b1c0-fce1b7df0029"
              d="M96.14,115.33a1.86,1.86,0,0,1,1,1.16,1.57,1.57,0,0,1,0,1.43,1.47,1.47,0,0,1-1.08,1,1.52,1.52,0,0,1-1.42,0,2.28,2.28,0,0,1-1.12-1.09,1.68,1.68,0,0,1,0-1.5,1.92,1.92,0,0,1,1-1.06A2.44,2.44,0,0,1,96.14,115.33Z"/>
    </g>
    <path id="bb285d5a-93b9-47e2-ac39-4a9f61c74b41" data-name="Layer2 5 MEMBER 10 MEMBER 1 MEMBER 1 MEMBER 0 1 STROKES"
          class="aa681275-b0e7-48df-af15-99f2b891e90e"
          d="M97.38,118.07a1.58,1.58,0,0,0,0-1.43,1.89,1.89,0,0,0-1-1.16,2.44,2.44,0,0,0-1.49-.11,1.92,1.92,0,0,0-1,1.06,1.66,1.66,0,0,0,0,1.49,2.26,2.26,0,0,0,1.12,1.1,1.52,1.52,0,0,0,1.42,0A1.45,1.45,0,0,0,97.38,118.07Z"/>
    <g id="a7dc2164-8c90-4b42-87a1-54ca8b934d50" data-name="Layer2 5 MEMBER 11 FILL">
        <path class="b7e1a0e4-dc00-4202-bb76-3043a8ee7bb5"
              d="M207.07,50.79A27.79,27.79,0,0,1,203,61q-3.37,5.77-17.9,11.28,1.48.76-9,.28-17.69-9-18.81-22.13,6.33-8.1,8.38-15.57a67.45,67.45,0,0,1,11.7,16.77Q193.62,39.31,207.07,50.79Z"/>
        <path class="b0e04268-f8b4-44ca-a7e6-d1d5ea616918"
              d="M212.07,9.22q-6.9,12-5.14,21.28,1.75,11.7.14,20.29-13.45-11.48-29.67.85a67.45,67.45,0,0,0-11.7-16.77q-1.9-11.7,6.84-22.48-3.94,6.62-1.13,18Q200.59,1.4,212.07,9.22Z"/>
    </g>
    <path id="e3d7e717-e58d-4c01-908a-48275b5628cd" data-name="Layer2 5 MEMBER 11 1 STROKES"
          class="ec040717-9375-43a8-b035-89df652f83c8"
          d="M165.7,34.87q-1.9-11.7,6.84-22.48-3.94,6.62-1.13,18,29.18-29,40.66-21.14-6.9,12-5.14,21.28,1.75,11.7.14,20.29m-49.75-.35q6.33-8.1,8.38-15.57m10.43,37.7q-17.69-9-18.81-22.13m27.76,21.85q1.48.76-9,.28M203,61q-3.37,5.77-17.9,11.28m22-21.5A27.79,27.79,0,0,1,203,61"/>
    <g id="e5e34dc1-9aee-4206-a5fe-0dd1eaddf972" data-name="Layer2 5 MEMBER 12 FILL">
        <path d="M113.17,139.2A54.26,54.26,0,0,1,82.54,109a54.3,54.3,0,0,1-.39-43,53.93,53.93,0,0,1,30-30.56,54.24,54.24,0,0,1,43-.36,54.26,54.26,0,0,1,30.63,30.2,54.26,54.26,0,0,1,.39,43A54.07,54.07,0,0,1,156,138.94a53.81,53.81,0,0,1-42.86.26M84,108.4a52.54,52.54,0,0,0,29.73,29.24,52.1,52.1,0,0,0,41.7-.18,52.58,52.58,0,0,0,29.31-29.91,52.7,52.7,0,0,0-.45-41.65,54.29,54.29,0,0,0-71.51-29.1A52.3,52.3,0,0,0,83.56,66.51,53,53,0,0,0,84,108.4Z"/>
        <path class="fc40097e-1e4a-4f98-85c1-197309b6448a"
              d="M113.7,137.64A52.54,52.54,0,0,1,84,108.4a53,53,0,0,1-.41-41.89A52.3,52.3,0,0,1,112.75,36.8a54.29,54.29,0,0,1,71.51,29.1,52.7,52.7,0,0,1,.45,41.65,52.58,52.58,0,0,1-29.31,29.91A52.1,52.1,0,0,1,113.7,137.64Z"/>
    </g>
    <g id="bb33dc83-4e96-4e79-904c-ee1ac00be693" data-name="Layer2 5 MEMBER 13 FILL">
        <path class="b0e04268-f8b4-44ca-a7e6-d1d5ea616918"
              d="M179.73,52.27Q173.59,33,160.91,24.44t-33.75-6.56a12,12,0,0,0-1.63,2.19q-4.78,8,.85,12.26a18.24,18.24,0,0,1,6,8.17q7-.84,11.49,2.26T166,54.88c1.93,1.22,3.06,2.4,3.39,3.52s.07,2.61-.78,4.58q2.82-2.53,4.09-2.32a9.1,9.1,0,0,1,3.87,2.11,138,138,0,0,0,4.73,13.75,17.39,17.39,0,0,1,.21-13.39l8.31-.5q-9.3-2.54-9.93-9.86A3.88,3.88,0,0,1,179.73,52.27Z"/>
    </g>
    <path id="b4231f67-bf77-4f1c-a384-9a0b36351d7b" data-name="Layer2 5 MEMBER 13 1 STROKES"
          class="f5879e35-4915-46cb-85be-929f2bbd144e"
          d="M132.37,40.5a18.08,18.08,0,0,0-6-8.12q-5.64-4.28-.85-12.19a16,16,0,0,1,1.06-2.31"/>
    <path id="ae706986-1acf-4b75-bef4-afe908972b92" data-name="Layer2 5 MEMBER 13 2 STROKES"
          class="ec040717-9375-43a8-b035-89df652f83c8"
          d="M127.16,17.88q21.06-2.12,33.75,6.56t18.82,27.83a3.88,3.88,0,0,0,.14.5q.63,7.32,9.93,9.86l-8.31.5a17.31,17.31,0,0,0-.18,13.39,29.28,29.28,0,0,0,1.23,2.88m-1.23-2.88a133.17,133.17,0,0,1-4.76-13.75,9.1,9.1,0,0,0-3.87-2.11q-1.27-.21-4.09,2.32,1.28-3,.78-4.58c-.33-1.12-1.46-2.3-3.39-3.52q-17.53-9.09-22.12-12.12T132.37,40.5"/>
    <g id="a9c7a02f-6072-40b4-b928-0c333666036b" data-name="Layer2 5 MEMBER 14 MEMBER 0 FILL">
        <path d="M130.45,59.79q-6.64,3.21-8,12a28.41,28.41,0,0,0,3.06,17.4,28.56,28.56,0,0,0,12.12,12.94q7.89,4.08,14.49.75t8-12.1A28.43,28.43,0,0,0,157,73.39,28.29,28.29,0,0,0,145,60.47q-7.9-4.14-14.5-.68M123.82,72q1.34-8,7.3-11t13,.77a27.25,27.25,0,0,1,11.56,12.34q4.31,8.5,3,16.6-1.23,7.92-7.17,11-6,2.94-13.16-.73a27.71,27.71,0,0,1-11.64-12.4A26.6,26.6,0,0,1,123.82,72Z"/>
        <path class="a8fc163b-ebd0-4bf5-a04e-16627f9e9c6e"
              d="M131.12,61q-6,3-7.3,11a26.6,26.6,0,0,0,2.93,16.58A27.71,27.71,0,0,0,138.39,101q7.14,3.67,13.16.73t7.17-11q1.32-8.1-3-16.6a27.25,27.25,0,0,0-11.56-12.34Q137.12,58,131.12,61Z"/>
    </g>
    <g id="f6d14a4a-1158-425b-915b-f03ddcad1b0d" data-name="Layer2 5 MEMBER 14 MEMBER 1 FILL">
        <path d="M126.16,80.52a21.75,21.75,0,0,0,11.52,22.72q6.06,2.87,11.44.18,5.22-2.52,6.55-9.25a20.3,20.3,0,0,0-2-13.25,20,20,0,0,0-9.39-9.6q-6.27-2.94-11.43-.27-5.34,2.65-6.64,9.47m22.3,21.77q-4.62,2.4-10.09-.22l0-.08a20.4,20.4,0,0,1-10.76-21.45q1.13-6,5.79-8.37c3.07-1.47,6.46-1.37,10.17.33a19.51,19.51,0,0,1,8.73,9.08,19.91,19.91,0,0,1,2.08,12.48l0-.07Q153,100,148.46,102.29Z"/>
        <path class="a4f105dc-8e4f-4210-827d-d2fd0bbdb146"
              d="M138.37,102.07q5.48,2.61,10.09.22t5.85-8.3l0,.07a19.91,19.91,0,0,0-2.08-12.48,19.51,19.51,0,0,0-8.73-9.08c-3.71-1.7-7.1-1.8-10.17-.33s-5,4.4-5.79,8.37A20.4,20.4,0,0,0,138.34,102Z"/>
    </g>
    <g id="f66ad2a8-cad8-48ff-ad36-597843849d6e" data-name="Layer2 5 MEMBER 14 MEMBER 2 FILL">
        <path d="M130.72,87.85a13.08,13.08,0,0,0,1.35,8.9,13.28,13.28,0,0,0,6.31,6.37,7.78,7.78,0,0,0,11.68-5.87,13.22,13.22,0,0,0-1.32-8.84A13.66,13.66,0,0,0,142.45,82a8,8,0,0,0-7.45-.24A7.92,7.92,0,0,0,130.72,87.85Z"/>
    </g>
    <path id="e1f9caa6-a904-4bae-843e-20435aff7b9e" data-name="Layer2 5 MEMBER 14 MEMBER 2 1 STROKES"
          class="f95793a9-291f-42a8-836b-b727879b597d"
          d="M130.74,87.85a13.07,13.07,0,0,0,1.36,8.91,13.28,13.28,0,0,0,6.3,6.36,8,8,0,0,0,7.49.23,8.09,8.09,0,0,0,4.19-6.1,13.19,13.19,0,0,0-1.32-8.83A13.66,13.66,0,0,0,142.48,82q-4.09-2-7.45-.23A7.87,7.87,0,0,0,130.74,87.85Z"/>
    <g id="a492ba81-f963-4917-9cd9-07684bc6aa99" data-name="Layer2 5 MEMBER 14 MEMBER 3 FILL">
        <path class="e0c99f82-0ca4-415b-97e4-065b94e5c633"
              d="M143.64,77.61a1.76,1.76,0,0,0-1.09,1.7,3.59,3.59,0,0,0,.49,2.61,3.85,3.85,0,0,0,.63,1.06A4.77,4.77,0,0,0,145,84a2.14,2.14,0,0,0,2.13.16,1.86,1.86,0,0,0,1.26-1.59.33.33,0,0,0,.07-.16,4.47,4.47,0,0,0-.49-2.62,5,5,0,0,0-2-2,3,3,0,0,0-2.11-.21A.35.35,0,0,1,143.64,77.61Z"/>
    </g>
    <g id="bf558927-9787-45aa-9d6d-3a03889d2c5e" data-name="Layer2 5 MEMBER 14 MEMBER 4 FILL">
        <path d="M129.88,61.79q.19.14.3.09a.48.48,0,0,0,.37-.07.85.85,0,0,0,.11-.26l0-.15-.08-.18q-14.22-16-28.08-7.5Q98,56.54,96.87,59.5a3,3,0,0,0-.17,1.27,1.12,1.12,0,0,0,.37.55,3,3,0,0,0,.65,0,11.56,11.56,0,0,0,3.17-2.09q8-7,19.26-2.82a29.72,29.72,0,0,1,9.64,5.39h.09m-3.56-3.61a42.85,42.85,0,0,0-5.73-2.64q-11.84-4.24-20.33,3a13.16,13.16,0,0,1-2.64,1.87,2.34,2.34,0,0,1,.18-.69c.75-1.85,2.5-3.62,5.27-5.32h0Q114.59,47.42,126.32,58.18Z"/>
        <path class="aafe4224-f590-4e64-9558-cd968d7ac6d6"
              d="M120.59,55.54a42.85,42.85,0,0,1,5.73,2.64Q114.59,47.41,103,54.42h0c-2.77,1.7-4.52,3.47-5.27,5.32a2.34,2.34,0,0,0-.18.69,13.16,13.16,0,0,0,2.64-1.87Q108.75,51.29,120.59,55.54Z"/>
    </g>
    <g class="a88abb45-c5cb-4482-b56b-27d9bdda0aeb">
        <g id="a5bd3b91-168f-4465-916b-ff20a34a5052" data-name="chapa 0 Layer0 0 FILL">
            <path class="a14b03f7-3687-47a2-9693-79e5317d4ea0"
                  d="M160,96a12.83,12.83,0,0,0-14.52,7.21,8.6,8.6,0,0,0,0,7.62,8.71,8.71,0,0,0,6.05,4.63,13,13,0,0,0,14.52-7.21,8.73,8.73,0,0,0,0-7.62A8.61,8.61,0,0,0,160,96Z"/>
        </g>
    </g>
    <g class="a88abb45-c5cb-4482-b56b-27d9bdda0aeb">
        <path class="e885e90f-2807-4b23-9f33-d8e928e0358d"
              d="M108.33,110.33a12.83,12.83,0,0,0-14.51,7.22,8.64,8.64,0,0,0,0,7.62,8.72,8.72,0,0,0,6.06,4.63,13,13,0,0,0,14.51-7.21,8.76,8.76,0,0,0,0-7.62A8.66,8.66,0,0,0,108.33,110.33Z"/>
    </g>
    <g id="a98b5f0a-1a22-465d-953a-2a2c924a763a"
       data-name="Layer2 5 MEMBER 17 MEMBER 0 MEMBER 0 MEMBER 0 MEMBER 0 FILL">
        <path class="fc40097e-1e4a-4f98-85c1-197309b6448a"
              d="M197.34,63.12a10.36,10.36,0,0,0-7.56-1.6,10.7,10.7,0,0,0-7.51,5.3l-1.75,3.53-.08.28a.46.46,0,0,1-.29.35l-.36,0q-.71,14.09,6.38,17.15l.3-.49a.62.62,0,0,1,.56,0,10.65,10.65,0,0,0,4.43.23,11.15,11.15,0,0,0,8.28-4.78,13.46,13.46,0,0,0,3-10.19q-.5-5.86-4.33-8.89l-1.1-1m-.55,9.57h.07a6.3,6.3,0,0,0-2.73-4.53q-2.06-1.48-4.67.61l-2.54,2a7.78,7.78,0,0,1,1.86,1.12,7.65,7.65,0,0,1,2.52,4.75,3.88,3.88,0,0,1-.22,2,.39.39,0,0,1-.36.41c0,.14-.13.19-.36.13a.68.68,0,0,1-.48-.3.73.73,0,0,1,.09-.56l-.09-1.62a5.47,5.47,0,0,0-1.77-3.8,5.06,5.06,0,0,0-2.35-1.21,5.52,5.52,0,0,1-1.87.92.47.47,0,0,1-.42-.09c-.28,0-.44-.18-.48-.37a.59.59,0,0,1,.09-.49c.1-.27.2-.41.3-.41a3.63,3.63,0,0,0,1.72-.85l.14.07c0-.14,0-.19.07-.14l3.27-2.7q3.4-2.7,6.23-.63A6.69,6.69,0,0,1,198,72.73a8.78,8.78,0,0,1-.2,3.66.68.68,0,0,1-.43.34.85.85,0,0,1-.5.12,2.71,2.71,0,0,1-.41-.36l0-.57A6.87,6.87,0,0,0,196.79,72.69Z"/>
    </g>
    <g id="b5265581-9981-4cae-bee1-b0c05e382e71"
       data-name="Layer2 5 MEMBER 17 MEMBER 0 MEMBER 0 MEMBER 0 MEMBER 1 FILL">
        <path class="b338a555-4523-462b-b505-96c3f3528c04"
              d="M185.25,70.11c-.11-.07-.15,0-.11.09l-.09,0a3.72,3.72,0,0,1-1.73.88c-.15-.05-.26.07-.31.36a.5.5,0,0,0-.07.5c.05.17.19.26.42.29a.49.49,0,0,0,.45.15,6.19,6.19,0,0,0,1.86-.92A5.17,5.17,0,0,1,188,72.63a5.71,5.71,0,0,1,1.86,3.79l.06,1.69a.5.5,0,0,0-.07.5.62.62,0,0,0,.42.29c.24.07.37,0,.38-.1.25-.07.38-.2.37-.38a3.78,3.78,0,0,0,.18-2.09,7.25,7.25,0,0,0-2.52-4.71,6.13,6.13,0,0,0-1.81-1.14l2.51-2q2.64-2.09,4.68-.6a6.54,6.54,0,0,1,2.69,4.59h-.07a6.41,6.41,0,0,1-.34,3.24v.48a.92.92,0,0,0,.44.35.76.76,0,0,0,.44-.12.8.8,0,0,0,.47-.26,8,8,0,0,0,.22-3.68,6.92,6.92,0,0,0-3.13-5.69q-2.88-2.09-6.24.62l-3.27,2.74m-4.06-4.35a5.52,5.52,0,0,0-1,1.92l-.08-.05a11.34,11.34,0,0,0-.9,2.23c-.11.08-.09.25.08.52,0,.09.11.18.28.27l.14,0,.42,0a.63.63,0,0,0,.23-.4l.07-.23,1.82-3.57a10.44,10.44,0,0,1,7.5-5.26,10.26,10.26,0,0,1,7.54,1.62l1.12.85q3.85,3.1,4.3,9a13.36,13.36,0,0,1-3,10.11,11.09,11.09,0,0,1-8.3,4.8,9.72,9.72,0,0,1-4.43-.22.55.55,0,0,0-.54,0l-.3.42.17.37.25.41a14.61,14.61,0,0,0,5,.48,13.54,13.54,0,0,0,9.27-5.27,15.87,15.87,0,0,0,3.15-11.17,12.79,12.79,0,0,0-4.71-10,10.62,10.62,0,0,0-9.71-2.8A11.31,11.31,0,0,0,181.19,65.76Z"/>
    </g>
    <g id="f3bb53f4-337f-4035-8e3e-048e74f6b220"
       data-name="Layer2 5 MEMBER 17 MEMBER 1 MEMBER 0 MEMBER 0 MEMBER 0 FILL">
        <path class="e4941364-bea1-4c30-b1c0-fce1b7df0029"
              d="M189.58,82.57a2.19,2.19,0,0,0,.36,1.81,1.83,1.83,0,0,0,1.32,1.07,1.72,1.72,0,0,0,1.68-.32,1.79,1.79,0,0,0,1-1.37,2.63,2.63,0,0,0-.23-1.84,2,2,0,0,0-1.44-1,2.3,2.3,0,0,0-1.72.2A2.89,2.89,0,0,0,189.58,82.57Z"/>
    </g>
    <path id="a7a86ea5-f1db-48b3-97ed-791b457c9e6e" data-name="Layer2 5 MEMBER 17 MEMBER 1 MEMBER 1 MEMBER 0 1 STROKES"
          class="aa681275-b0e7-48df-af15-99f2b891e90e"
          d="M191.47,85.48a1.87,1.87,0,0,1-1.32-1.08,2.25,2.25,0,0,1-.36-1.81,2.93,2.93,0,0,1,1-1.49,2.35,2.35,0,0,1,1.72-.2,2,2,0,0,1,1.44,1,2.72,2.72,0,0,1,.24,1.85,1.81,1.81,0,0,1-1,1.36A1.74,1.74,0,0,1,191.47,85.48Z"/>
    <g id="aca3c365-4fe3-4846-a7b0-1f708a368b72" data-name="Layer2 5 MEMBER 18 MEMBER 0 FILL">
        <path d="M88.12,87.08Q83.92,88.6,82.47,94a19.29,19.29,0,0,0,.84,11.33,19.19,19.19,0,0,0,6.54,9.41q4.55,3.45,8.73,1.9t5.72-6.84a19.42,19.42,0,0,0-.8-11.35,19.32,19.32,0,0,0-6.57-9.38q-4.55-3.47-8.81-2m-4.75,7.08q1.23-4.89,5-6.26t8,1.8a20.32,20.32,0,0,1,7,19.86q-1.36,4.89-5.17,6.29-3.84,1.23-7.9-1.82a18.56,18.56,0,0,1-6.31-9A18.29,18.29,0,0,1,83.37,94.16Z"/>
        <path class="a8fc163b-ebd0-4bf5-a04e-16627f9e9c6e"
              d="M88.37,87.9q-3.77,1.36-5,6.26a18.29,18.29,0,0,0,.7,10.9,18.56,18.56,0,0,0,6.31,9q4.07,3,7.9,1.82,3.81-1.39,5.17-6.29a20.32,20.32,0,0,0-7-19.86Q92.23,86.61,88.37,87.9Z"/>
    </g>
    <g id="a842687c-d143-4654-8c08-d7a2bd66855e" data-name="Layer2 5 MEMBER 18 MEMBER 1 FILL">
        <path d="M103.74,101.93a14.17,14.17,0,0,0-5.11-7,7.67,7.67,0,0,0-7-1.34c-2.22.73-3.74,2.5-4.58,5.29a13.45,13.45,0,0,0,.49,8.66,13.92,13.92,0,0,0,5,7c2.42,1.62,4.71,2,6.9,1.22a7.16,7.16,0,0,0,4.68-5.15,14.07,14.07,0,0,0-.39-8.71m-5.69-6.27a14.06,14.06,0,0,1,5.22,14.72A6.39,6.39,0,0,1,99.2,115a6.82,6.82,0,0,1-6.13-1.19,12.92,12.92,0,0,1-4.79-6.52,13.1,13.1,0,0,1-.42-8.16q1.1-3.73,4-4.75A6.76,6.76,0,0,1,98.05,95.66Z"/>
        <path class="f04775d0-498a-44f4-957b-08be63ca4181"
              d="M102.9,102.25a13.15,13.15,0,0,0-4.85-6.59,6.76,6.76,0,0,0-6.17-1.27q-2.92,1-4,4.75a13.1,13.1,0,0,0,.42,8.16,12.92,12.92,0,0,0,4.79,6.52A6.82,6.82,0,0,0,99.2,115a6.39,6.39,0,0,0,4.07-4.63A13,13,0,0,0,102.9,102.25Z"/>
    </g>
    <g id="be52fda1-5b0c-4dc2-bd9f-64de3389eca3" data-name="Layer2 5 MEMBER 18 MEMBER 2 FILL">
        <path d="M92.28,109a9,9,0,0,0,3.43,4.68,4.85,4.85,0,0,0,4.51.87,5,5,0,0,0,3-3.39,9.06,9.06,0,0,0-.22-5.82,9.42,9.42,0,0,0-3.44-4.68,4.84,4.84,0,0,0-4.59-1,4.93,4.93,0,0,0-2.91,3.52A9.21,9.21,0,0,0,92.28,109Z"/>
    </g>
    <path id="f707fd0d-32c0-49eb-a878-49d1672aa6d0" data-name="Layer2 5 MEMBER 18 MEMBER 2 1 STROKES"
          class="f95793a9-291f-42a8-836b-b727879b597d"
          d="M100.26,114.5a4.8,4.8,0,0,1-4.51-.87A9,9,0,0,1,92.32,109a9.21,9.21,0,0,1-.21-5.78A4.93,4.93,0,0,1,95,99.66a4.82,4.82,0,0,1,4.59,1,9.42,9.42,0,0,1,3.44,4.68,9,9,0,0,1,.22,5.81A4.91,4.91,0,0,1,100.26,114.5Z"/>
    <g id="fdbaca76-b3fd-4800-85f2-986fdb891245" data-name="Layer2 5 MEMBER 18 MEMBER 3 FILL">
        <path class="e0c99f82-0ca4-415b-97e4-065b94e5c633"
              d="M90.07,101.46l-.11.05a1.73,1.73,0,0,0-.81,1,4,4,0,0,0,0,1.88,2.71,2.71,0,0,0,1,1.32l.06.15a1.06,1.06,0,0,0,1.23.1,1.07,1.07,0,0,0,.77-1,3.71,3.71,0,0,0,.13-1,2.43,2.43,0,0,0-.16-.81,2.53,2.53,0,0,0-1-1.43A1.07,1.07,0,0,0,90.07,101.46Z"/>
    </g>
    <g id="b51e8956-a107-487f-95ca-255f7cfd8704" data-name="Layer2 5 MEMBER 19 FILL">
        <path class="b0e04268-f8b4-44ca-a7e6-d1d5ea616918"
              d="M181.28,62.28l-4.65.92q.56,2.67,1.83,7.68a23.19,23.19,0,0,0,4.72,11.7q-2.69-9.45-.28-15.65,1.83-3.66,7.47-3.45l-6.84-3.81Q183.64,59.86,181.28,62.28Z"/>
    </g>
    <path id="e9213435-8be0-4c87-ae20-4fe1f1577403" data-name="Layer2 5 MEMBER 19 1 STROKES"
          class="ec040717-9375-43a8-b035-89df652f83c8"
          d="M190.37,63.48q-5.64-.21-7.47,3.45-2.4,6.21.28,15.65a23.19,23.19,0,0,1-4.72-11.7q-1.28-5-1.83-7.68"/>
    <path id="bdebe8cf-b723-4ae3-8e00-531456119b8a" data-name="Layer2 5 MEMBER 19 2 STROKES"
          class="a33b8f18-9625-4aa2-9136-9c5b781790ac" d="M190.37,63.48l-6.8-3.81"/>
    <g id="ace9b494-d251-484e-a364-903c9cb8fbe5" data-name="Layer2 5 MEMBER 20 FILL">
        <path class="e490bd51-4319-4ac8-86ac-858f60d33e20"
              d="M143,134.31a9.42,9.42,0,0,0,.07-3.47q-5.67,1.83-5.78,8.55a5.54,5.54,0,0,0,2.54-.6A5.92,5.92,0,0,0,143,134.31Z"/>
        <path class="a8fc163b-ebd0-4bf5-a04e-16627f9e9c6e"
              d="M128.84,127.69a3,3,0,0,0-.1.89l6.54-5.9a5.29,5.29,0,0,0-3.25.6A5.91,5.91,0,0,0,128.84,127.69Z"/>
        <path class="b7520115-b727-4fe3-82b8-2d499e27f5e2"
              d="M128.74,128.58a9.92,9.92,0,0,0,1.08,5.53,9.32,9.32,0,0,0,4.53,4.53,6.73,6.73,0,0,0,3,.75q.1-6.72,5.78-8.55a8.84,8.84,0,0,0-1-2.88,9.72,9.72,0,0,0-4.57-4.66,5.72,5.72,0,0,0-2.22-.62Z"/>
    </g>
    <path id="a3fc4fe5-b153-47a5-ac15-434338f171eb" data-name="Layer2 5 MEMBER 20 1 STROKES"
          class="abab41f3-2062-4df6-a391-5674b8112996"
          d="M137.35,139.41a6.61,6.61,0,0,1-3-.76,9.31,9.31,0,0,1-4.54-4.52,10.13,10.13,0,0,1-1.08-5.54,3,3,0,0,1,.11-.88,5.88,5.88,0,0,1,3.18-4.41,5.33,5.33,0,0,1,3.26-.6,5.55,5.55,0,0,1,2.22.62A9.72,9.72,0,0,1,142.1,128a8.84,8.84,0,0,1,1,2.88,9.42,9.42,0,0,1-.07,3.47,5.91,5.91,0,0,1-3.18,4.48A5.47,5.47,0,0,1,137.35,139.41Zm0,0q.1-6.72,5.78-8.55m-14.37-2.27,6.55-5.89"/>
    <g id="a45f9b3c-eed2-40a8-85a5-91c8c903f8ff" data-name="Layer2 5 MEMBER 21 FILL">
        <path class="b0e04268-f8b4-44ca-a7e6-d1d5ea616918"
              d="M138.29,39.52q-71.7,16.13-55.81,66.59Q52.39,28.74,128.63,17.74,123.71,26.7,138.29,39.52Z"/>
    </g>
    <path id="b0980a9c-781c-4f9e-ae7a-b3fa045bd543" data-name="Layer2 5 MEMBER 21 1 STROKES"
          class="f95793a9-291f-42a8-836b-b727879b597d"
          d="M138.29,39.52q-71.7,16.13-55.81,66.59Q52.39,28.74,128.63,17.74,123.71,26.7,138.29,39.52Z"/>
    <g id="b7f6b560-52ae-479b-9717-075ee8d7132e" data-name="Layer2 5 MEMBER 22 MEMBER 0 MEMBER 0 MEMBER 0 FILL">
        <path class="fc40097e-1e4a-4f98-85c1-197309b6448a"
              d="M108,116.43q2.39,13.39,19.19-1.86,3.06-4.08-.25-6.73l.18-.37q-3.57-9.51-16-20.93-11.43-1.94-8,5.11T108,116.43Z"/>
    </g>
    <path id="b50559f7-df72-400b-962d-2c0bcd5db6f5" data-name="Layer2 5 MEMBER 22 MEMBER 1 MEMBER 0 1 STROKES"
          class="ba95cfbf-7d43-431e-9887-0e8237a88db5"
          d="M101.4,87.81q5.85,11.47,6.26,28.69,2.46,13.52,19.21-1.71,3.06-4.1-.26-6.88"/>
    <g id="adfac21c-64e6-4301-856f-89139c549d0b" data-name="Layer2 5 MEMBER 23 FILL">
        <path d="M78.62,96.44a19,19,0,0,1,1.56-6.79q2.82-7,9.27-7.42a5.1,5.1,0,0,0,2.29-.52,1,1,0,0,0,.25-.24.78.78,0,0,0-.06-.46,1.54,1.54,0,0,0-.72-.45,7.41,7.41,0,0,0-4.9-.13Q76.65,82.77,78,96.51a.1.1,0,0,0,.06.15s0,0,.06,0,.08.06.21.09.15,0,.17-.12a.1.1,0,0,0,.06-.16l0,0M86.41,81l0,0A7.17,7.17,0,0,1,91,81a2.64,2.64,0,0,1,.4.32,5.34,5.34,0,0,1-1.94.29q-6.83.51-9.77,7.8a19.1,19.1,0,0,0-1.22,3.78Q78.51,83,86.41,81Z"/>
        <path class="aafe4224-f590-4e64-9558-cd968d7ac6d6"
              d="M86.39,81l0,0q-7.91,2-8,12.24a19.1,19.1,0,0,1,1.22-3.78q2.94-7.29,9.77-7.8a5.34,5.34,0,0,0,1.94-.29A2.64,2.64,0,0,0,91,81,7.17,7.17,0,0,0,86.39,81Z"/>
    </g>
    <g id="ed313ec1-02de-4476-ad68-34d74293e854" data-name="Layer2 5 MEMBER 24 FILL">
        <path class="b7e1a0e4-dc00-4202-bb76-3043a8ee7bb5"
              d="M104,29q16.15-.46,21,.07t18.6,12.75a22.45,22.45,0,0,0-8.74-1.26Q130.66,35.06,104,29Z"/>
        <path class="b3e8b615-5915-48b6-936f-5b87cc137ee5" d="M79.27,53.33q-.42.21-.63,0c1-.14,1.24-.14.77,0Z"/>
        <path class="b0e04268-f8b4-44ca-a7e6-d1d5ea616918"
              d="M101.68,28.81A6.88,6.88,0,0,0,104,29q26.64,6,30.86,11.56-8,.14-15,6.55l-.42.07-.28.42a.12.12,0,0,0-.14.14h-.15l-.21.21-.84.78a32.54,32.54,0,0,1-14.31,5.78Q92,58.61,88.57,65,85,58.54,89.84,54.6q-8.88.7-10.57-1.27h.14c.47-.14.21-.14-.77,0a23.39,23.39,0,0,0,5.28-2.61A47.81,47.81,0,0,1,89,47.41a2.32,2.32,0,0,0,.91-.49c1.55-.52,3-1,4.23-1.55.09-.14.28-.19.56-.14s.31-.12.36-.07l1.41-.71q4.08-1.7,3.87-1.83c5.31-1.46,8.46-2.3,9.44-2.54.8-.23,1-.63.64-1.2-6.31,1.81-10.2,1.44-15.67-.58a6.15,6.15,0,0,1-3.15-3q4,.08,3.88-2.18-6.42-11.87-4.16-8.6t5.07,3.66C98.32,28.39,100.08,28.6,101.68,28.81Z"/>
    </g>
    <path id="a1d05b04-e233-4593-b622-81cf8659723c" data-name="Layer2 5 MEMBER 24 1 STROKES"
          class="ec040717-9375-43a8-b035-89df652f83c8"
          d="M104,29a6.77,6.77,0,0,1-2.37-.18c-1.57-.22-4.07-.4-5.25-.67a9.4,9.4,0,0,1-5.1-3.63m.31,10.75c-.08,4.75,17.31,5.43,19,4.2,1.48-1.08,1.47,1.26-8.56,3.16S79.27,53.33,79.27,53.33q1.7,2,10.57,1.27Q85,58.54,88.57,65,92,58.61,103.51,54.53a32.54,32.54,0,0,0,14.31-5.78l.84-.78.21-.21H119a.12.12,0,0,1,.14-.14l.28-.42.42-.07q7-6.42,15-6.55a22.45,22.45,0,0,1,8.74,1.26Q129.76,29.63,125,29.09A94.31,94.31,0,0,1,104,29"/>
    <path class="b24b7df3-0a3f-4715-8e6a-2c74f2c6c4b4"
          d="M259,266c1.23-4.59-1.57-7.88-5.27-10.23a7,7,0,0,0-3-5.86c-3.34-2.7-9.74-4.22-14-4.79a16.85,16.85,0,0,0-7.63.8c-4.71-.28-8.84.72-12.15,3.31-1,.12-2.08.27-3.15.45-2.48.43-3.78,2.71-4.45,4.66a9.07,9.07,0,0,0,.36,7.53,9.45,9.45,0,0,0,.78,6.07c2.8,5.15,10.42,5.56,15.73,5.49a50.25,50.25,0,0,1,10.41.86c3.37.61,6.6,0,10,.17a6,6,0,0,0,4.32-1.32C254.64,271.94,258,269.47,259,266Z"/>
    <path class="ed2a238f-a01a-4df6-935c-37b75e777a1e"
          d="M296.12,282.1a6.81,6.81,0,0,0-4.87-6.41,46.9,46.9,0,0,0-36.66,3.22c-3.23,1.66-4,5.06-3.05,8a6.59,6.59,0,0,0,4.91,7.44c11.08,3.14,41.32,13.66,42.09-7A6.17,6.17,0,0,0,296.12,282.1Z"/>
    <path class="ed2a238f-a01a-4df6-935c-37b75e777a1e"
          d="M98.94,153a9.09,9.09,0,0,0-1.54-3.06c-1.6-3.1-4.12-6-6.87-6.8l0-.23c0-1.81-1-4-1.73-5.61a25.79,25.79,0,0,0-5.6-8.15C77.89,124,71.05,122.49,64,121.71c-8.14-.89-13.54,2.73-20.22,6.92-5.23,3.28-11,8-8.55,15a9.88,9.88,0,0,0,.5,1.19c-2.72,3.75-1.08,9.17,3.72,10.94l13.57,5c1.79.66,4.62,1.1,6.16,2.28s1.79,2.42,3,3.69c5.29,5.46,15.09,3.75,21.53,1.83a6.63,6.63,0,0,0,4.06-3.13C94.92,164.68,101.22,161.17,98.94,153Z"/>
    <path class="a32587c5-15bd-4bae-80b8-8de9e57144ba"
          d="M254.48,283.28a8.83,8.83,0,0,0,8.09-3.89s1.62-2.4,1.08-4.2-.42,0-.42,0,5.88-1.74,6.6-1.8-3.24,14.21-15,13.85C254.84,287.24,254.54,288.26,254.48,283.28Z"/>
    <path class="a32587c5-15bd-4bae-80b8-8de9e57144ba"
          d="M240.8,274.41l-5-1s2.1-4.62,6.48-5c0,0,10.5-4.86,15.89-2-.06,1.46-3.32,4.72-5.63,7.44Z"/>
    <path class="ed2a238f-a01a-4df6-935c-37b75e777a1e"
          d="M253.17,267.61a19.28,19.28,0,0,0-5.58,1,23.63,23.63,0,0,0-3.23,1.39,8.6,8.6,0,0,0-.92.55,7,7,0,0,0-6.08,5.05c-1,3.53,1.19,7.84,4.92,8.66,7,1.55,22.79,1.56,22.57-8.85C264.72,269.27,258.25,267.42,253.17,267.61Z"/>
    <path class="a32587c5-15bd-4bae-80b8-8de9e57144ba"
          d="M70.71,169.63S85.23,166,85.26,163c0,0,15.84-4.76,4.47-16.55,0,0-1.14-8.81-2.34-10.43,0,0,2.55,3.95,2.34,7.91,0,0,1.93-2.16,7.65,6.66,0,0,3.94,8.19-2,11.7,0,0-4.89,2.56-8,2.39C87.39,164.65,86.73,169.9,70.71,169.63Z"/>
</svg>
