<svg id="Capa_1" data-name="Capa 1" xmlns="http://www.w3.org/2000/svg" viewBox="0 0 172 145"><defs><style>.cls-1{fill:#ff991d;}</style></defs><path class="cls-1" d="M133.78,112.65l-1.23.49A170.87,170.87,0,0,1,115,118.9a170.9,170.9,0,0,1-35.07,5.37l-1.38.06c-12.39.5-22.29-.6-31.05-3.45-6.41-2.08-13.34-5.29-17-11.34C23.18,97.57,32.19,92,32.19,92c3.29-6.12,8.56-16.31,12.21-22.22,3.36-5.47,8.89-9.67,13.29-14.36,0,0,5.22-5.93,5.42-17l1.32-15.49A3.23,3.23,0,0,1,65.71,21,4.74,4.74,0,0,1,67.94,20h.2v0h.3a2.08,2.08,0,0,1,.25,0c2.29,0,5.09.4,9,.43q6.3,0,16.32,0a1.79,1.79,0,0,1,1.69,1,4.2,4.2,0,0,1,.49,2.18,5.41,5.41,0,0,1-.58,2.26A2.12,2.12,0,0,1,94,27.14l-5.28.22-6.07.27c-2.08.09-4.13.16-6.17.22s-3.84.06-5.43,0c0,.63,0,1.26,0,1.88s0,1.5-.06,2.39c-.06,2.05-.11,4-.16,6,0,1.13,0,2.27,0,3.43q0,4.1.31,7.72a16.13,16.13,0,0,0,1.11,5.33,18.54,18.54,0,0,0,2,.22l3.51.27,3.5.26c1.1.09,1.76.17,2,.22A4.25,4.25,0,0,1,85,56.82a3.72,3.72,0,0,1,.8,1.73,2,2,0,0,1-.36,1.55,2.1,2.1,0,0,1-1.64.76c-.53,0-1.36,0-2.49.13l-3.59.27c-1.27.09-2.5.15-3.68.18a8,8,0,0,1-2.57-.23,71.85,71.85,0,0,0-.94,8.52q-.21,4.35-.17,9c0,3.08.1,6.27.22,9.59s.18,6.77.18,10.38l25.11.53a2.44,2.44,0,0,1,.93.89,5,5,0,0,1,.71,1.6,2.71,2.71,0,0,1-.13,1.73,2.5,2.5,0,0,1-1.51,1.28q-.54.54-3.24.93t-6.43.58q-3.74.18-8,.09t-7.9-.36c-1.32-.09-3-.05-4.34-.13a1.54,1.54,0,0,1-.3,0,3.31,3.31,0,0,1-2.43-.86A4.77,4.77,0,0,1,62,101.56c-.2-2.82.95-9.67,1.41-13.08a121.9,121.9,0,0,0-.8-12.67,27.4,27.4,0,0,0-1.82-7.64,3.15,3.15,0,0,1-.71.52,2.64,2.64,0,0,1-1.77.24c.32-.55.63-1,.87-1.33a7,7,0,0,0,.56-1l.09-.25c-.51-.83-1.17-1.66-1.95-1.74-1.43-.15-3.06,1.58-3.93,2.49-5.07,5.33-8.71,11.85-12.18,18.35A95.36,95.36,0,0,0,37,95.15H37a12.39,12.39,0,0,0-3.45,1.69,3.17,3.17,0,0,0-1.34,1.63,4,4,0,0,0,1,3.87,6.8,6.8,0,0,0,.65.57c.06,0,.3.22.36.26a.52.52,0,0,0-.11.4c.85,7.63,10.38,12.76,27.63,14.86,9.62,1.17,20.27.84,33.52-1a164.1,164.1,0,0,0,35.45-9.31c5.49-2.08,12.23-4.63,17.18.34a71.38,71.38,0,1,0-2.85,4.67,2.66,2.66,0,0,1-.66-.6C141.91,109.38,137.21,111.27,133.78,112.65ZM42.71,95.08c-.25.17-.51.32-.75.5-.49.32-1,.67-1.41,1s-.9.71-1.3,1.09a2,2,0,0,0-.67,1,3.75,3.75,0,0,0,.52,2.75A16.69,16.69,0,0,0,41.18,104L41,104a6.5,6.5,0,0,1-3-1.72,4.37,4.37,0,0,1-1.13-4,3.38,3.38,0,0,1,1.31-1.87,10.52,10.52,0,0,1,1.63-1,9.66,9.66,0,0,1,1.77-.65c.31-.07.61-.14.92-.18a2.56,2.56,0,0,0,.88-.18A1.94,1.94,0,0,1,42.71,95.08ZM53.63,82.29a2.24,2.24,0,0,1-.89,1.51,2.38,2.38,0,0,1-1.27.45,3.1,3.1,0,0,1-.43,0,2.29,2.29,0,0,1,.66-4.53,2.27,2.27,0,0,1,1.5.9A2.23,2.23,0,0,1,53.63,82.29Zm6.45-.6c-.22-.91-.44-1.81-.64-2.71s-.37-1.81-.54-2.72a37.58,37.58,0,0,1-.64-5.54,25.52,25.52,0,0,1,1.52,5.38c.16.92.29,1.84.36,2.78A12.59,12.59,0,0,1,60.08,81.69Zm57.35,24c-2,.06-3.89.15-5.84.24-.86,0-1.23-.1-1.12-.67a32.94,32.94,0,0,0,0-11.88c-.09-.51.17-.67,1-.65s1.92,0,2.87,0h3c.71,0,1,.13,1,.59a27.66,27.66,0,0,0,.12,11.67C118.53,105.51,118.3,105.69,117.43,105.72Zm-7-84.61c-.11-.93.28-1.16,1.23-1.1,2.14.14,4.27.3,6.4.39,1,0,1.2.35,1.07,1.15A67.09,67.09,0,0,0,119,40.64c.1.75-.26,1-1,1h-3.27c-1,0-2.1,0-3.15,0s-1.22-.23-1.12-1.08A79.86,79.86,0,0,0,110.47,21.11Zm0,42.17a79.94,79.94,0,0,0,0-19.43c-.11-.93.28-1.16,1.23-1.09,2.14.14,4.27.29,6.4.39,1,0,1.2.34,1.07,1.15A67,67,0,0,0,119,63.38c.1.75-.26,1-1,1h-3.27c-1,0-2.1,0-3.15,0S110.36,64.12,110.46,63.28Zm-.36,3.1c.08-.44.42-.49,1.36-.44,2,.1,4.06.31,6.09.42.92,0,1.12.4,1,1.31a101.81,101.81,0,0,0-.26,18.93l.56,5a2.86,2.86,0,0,0-1.93-.49c-1.91.16-3.82.2-5.73.33-1,.08-1.23-.3-1.11-1.28a93.41,93.41,0,0,0,.44-18.46C102.6,73.58,98.27,70.24,96,67.44a14.53,14.53,0,0,1,7.35-.83,16.35,16.35,0,0,1-5.87-12.92S105.92,55.9,110.1,66.38Z"/></svg>